<svg version="1.0" preserveAspectRatio="xMidYMid meet" viewBox="99 71.099997472 254.7 224.099992032" zoomAndPan="magnify" xmlns:xlink="http://www.w3.org/1999/xlink" xmlns="http://www.w3.org/2000/svg" style="max-height: 500px" width="254.7" height="224.099992032"><rect fill-opacity="1" height="539.99998" y="-44.999998" fill="#ffffff" width="540" x="-45"/><rect fill-opacity="1" height="539.99998" y="-44.999998" fill="#ffffff" width="540" x="-45"/><path fill-rule="nonzero" fill-opacity="1" d="M 220.617188 86.511719 C 218.886719 86.652344 214.339844 87.222656 213.484375 87.40625 C 207.003906 88.851562 202.335938 90.542969 196.894531 93.453125 C 189.273438 97.507812 181.632812 104.269531 176.742188 111.273438 C 171.359375 118.992188 167.976562 127.359375 166.488281 136.648438 C 165.675781 141.757812 165.734375 149.761719 166.632812 155.015625 C 168.851562 167.945312 175.824219 180.570312 185.503906 189.164062 C 200.972656 202.910156 221.25 207.695312 240.894531 202.238281 C 244.523438 201.21875 246.5625 200.445312 250.167969 198.695312 C 254.304688 196.679688 257.097656 195.007812 260.257812 192.648438 C 269.183594 185.96875 275.96875 177.089844 280.027344 166.785156 C 284.121094 156.398438 285.140625 145.160156 282.960938 134.242188 C 281.308594 125.933594 278.699219 119.722656 273.667969 112.085938 C 268.960938 104.960938 262.640625 99.097656 254.449219 94.308594 C 249.902344 91.644531 247.765625 90.6875 242.933594 89.117188 C 237.25 87.285156 232.785156 86.59375 226.121094 86.492188 C 223.65625 86.46875 221.1875 86.46875 220.617188 86.511719 Z M 233.355469 93.066406 C 238.246094 93.945312 242.40625 95.207031 247.03125 97.285156 C 251.066406 99.097656 256.773438 102.71875 259.054688 104.917969 C 259.238281 105.082031 259.972656 105.734375 260.664062 106.34375 C 263.335938 108.644531 266.878906 112.71875 268.835938 115.710938 C 271.445312 119.664062 274.117188 125.222656 275.238281 128.949219 C 276.417969 132.878906 277.785156 140.476562 277.785156 143.082031 L 277.785156 144.179688 L 275.910156 144.203125 C 274.871094 144.203125 273.605469 144.261719 273.097656 144.34375 C 266.554688 145.199219 261.09375 147.175781 256.28125 150.390625 C 252.878906 152.652344 252.511719 152.976562 246.296875 159.085938 C 239.144531 166.09375 235.921875 168.167969 229.726562 169.820312 C 226.957031 170.550781 222.226562 170.613281 219.191406 169.941406 C 213.28125 168.636719 209.878906 166.5625 208.269531 163.261719 C 207.636719 161.957031 207.574219 161.695312 207.574219 159.902344 C 207.574219 158.152344 207.636719 157.84375 208.226562 156.644531 C 210.367188 152.203125 214.972656 149.375 221.128906 148.703125 C 222.085938 148.601562 224.652344 148.457031 226.835938 148.394531 C 233.355469 148.191406 236.269531 147.722656 240.609375 146.257812 C 247.335938 143.976562 252.636719 139.558594 255.386719 133.9375 C 256.875 130.882812 257.300781 128.929688 257.300781 125.078125 C 257.300781 122.414062 257.21875 121.636719 256.8125 120.089844 C 254.367188 110.804688 246.214844 104.269531 233.660156 101.539062 C 231.113281 100.988281 230.789062 100.96875 225.40625 100.96875 C 220.046875 100.96875 219.679688 100.988281 217.214844 101.519531 C 213.363281 102.355469 209.0625 103.839844 206.882812 105.0625 C 202.277344 107.648438 200.136719 109.238281 197.386719 112.066406 C 194.0625 115.488281 192.617188 117.832031 191.761719 121.171875 C 190.457031 126.28125 192.535156 131.820312 197.546875 136.605469 C 201.339844 140.210938 205.945312 142.898438 211.855469 144.894531 C 213.261719 145.363281 214.402344 145.789062 214.402344 145.851562 C 214.402344 145.910156 213.609375 146.15625 212.628906 146.421875 C 211.628906 146.664062 210.101562 147.152344 209.207031 147.5 C 207.269531 148.234375 206.617188 148.214844 203.417969 147.277344 C 199.078125 146.015625 196.632812 144.953125 193.289062 142.878906 C 187.15625 139.027344 182.710938 133.144531 180.878906 126.445312 C 180.042969 123.371094 179.695312 120.601562 179.960938 118.828125 C 180.246094 116.730469 180.753906 115.835938 183.710938 112.167969 C 186.480469 108.726562 189.925781 105.410156 193.308594 102.902344 C 200.789062 97.34375 209.226562 93.964844 218.476562 92.804688 C 221.941406 92.375 230.21875 92.519531 233.355469 93.066406 Z M 230.910156 106.753906 C 237.144531 107.710938 242.363281 109.867188 246.011719 112.984375 C 249.742188 116.179688 251.800781 120.476562 251.777344 125.078125 C 251.757812 127.667969 251.390625 129.171875 250.167969 131.71875 C 248.601562 134.9375 245.320312 138.03125 241.40625 139.945312 C 238.53125 141.351562 235.945312 142.144531 232.664062 142.613281 C 230.6875 142.898438 225.285156 142.878906 223.164062 142.59375 C 219.742188 142.125 215.707031 140.921875 212.8125 139.457031 C 210.917969 138.5 210.328125 137.949219 209.613281 136.542969 C 209.082031 135.507812 209 135.160156 209.023438 133.734375 C 209.0625 129.355469 212.121094 125.183594 217.460938 122.207031 C 220.230469 120.640625 222.554688 120.109375 226.527344 120.089844 C 229.402344 120.089844 229.972656 120.152344 231.316406 120.558594 C 235.535156 121.882812 236.964844 123.429688 236.78125 126.425781 C 236.574219 129.5 234.335938 132.226562 230.035156 134.652344 C 228.6875 135.40625 228.421875 135.792969 228.996094 136.21875 C 229.542969 136.648438 232.4375 136.421875 234.394531 135.8125 C 238.410156 134.550781 242.015625 130.640625 242.484375 127.015625 C 242.832031 124.226562 241.894531 121.3125 240.039062 119.398438 C 237.144531 116.425781 231.785156 114.492188 226.445312 114.492188 C 221.984375 114.492188 216.808594 116.058594 212.875 118.605469 C 211.324219 119.601562 208.714844 121.863281 207.59375 123.164062 C 205.027344 126.179688 203.214844 130.617188 203.4375 133.46875 C 203.457031 133.878906 203.417969 134.285156 203.355469 134.367188 C 203.132812 134.570312 199.914062 131.210938 198.953125 129.785156 C 197.179688 127.097656 196.734375 123.472656 197.855469 120.824219 C 198.894531 118.296875 202.601562 114.328125 206.3125 111.761719 C 207.617188 110.84375 210.511719 109.398438 212.671875 108.566406 C 214.078125 108.015625 218.070312 107.039062 219.90625 106.773438 C 220.742188 106.652344 221.65625 106.507812 221.941406 106.46875 C 223.371094 106.242188 228.769531 106.40625 230.910156 106.753906 Z M 177.820312 133.632812 C 181.367188 140.679688 186.867188 145.953125 194.675781 149.78125 C 196.164062 150.515625 198.425781 151.449219 199.667969 151.878906 L 201.96875 152.652344 L 200.15625 154.484375 C 195.570312 159.1875 192.472656 164.933594 191.476562 170.574219 C 190.539062 175.949219 191.085938 182.179688 192.902344 186.617188 C 193.167969 187.269531 193.328125 187.800781 193.269531 187.800781 C 193.105469 187.800781 189.84375 185.03125 188.273438 183.542969 C 178.859375 174.6875 172.664062 160.960938 172.09375 147.683594 C 171.910156 143.632812 172.378906 138.621094 173.355469 133.9375 C 173.664062 132.453125 175.027344 127.542969 175.230469 127.238281 C 175.292969 127.136719 175.679688 128.09375 176.089844 129.375 C 176.496094 130.660156 177.269531 132.574219 177.820312 133.632812 Z M 277.398438 149.699219 C 277.761719 149.71875 277.761719 149.800781 277.152344 153.488281 C 276.480469 157.640625 275.074219 162.691406 273.832031 165.542969 C 273.546875 166.195312 273.21875 167.109375 273.097656 167.578125 C 272.972656 168.066406 272.832031 168.453125 272.75 168.453125 C 272.6875 168.453125 272.097656 168.128906 271.445312 167.722656 C 269.652344 166.640625 268.144531 166.175781 266.066406 166.070312 C 261.460938 165.808594 257.363281 167.78125 251.230469 173.21875 C 245.765625 178.085938 241.445312 180.671875 235.800781 182.503906 C 231.929688 183.769531 229.074219 184.195312 224.695312 184.195312 C 220.292969 184.195312 216.867188 183.726562 212.386719 182.503906 C 209.328125 181.671875 208.167969 181.527344 207.453125 181.894531 C 206.902344 182.199219 206.964844 182.710938 207.675781 183.707031 C 209.550781 186.273438 214.054688 188.308594 220.007812 189.246094 C 222.757812 189.695312 228.527344 189.59375 231.625 189.042969 C 240.589844 187.453125 248.089844 183.605469 255.527344 176.742188 C 257.507812 174.949219 260.421875 172.832031 261.765625 172.242188 C 263.84375 171.324219 266.066406 171.183594 267.898438 171.835938 C 268.652344 172.101562 269.632812 172.953125 269.632812 173.34375 C 269.632812 174.378906 264.925781 180.347656 261.644531 183.441406 C 257.425781 187.414062 253.492188 190.183594 248.5 192.667969 C 238.347656 197.738281 228.136719 199.347656 216.644531 197.65625 C 207.308594 196.292969 201.992188 192.808594 198.691406 185.867188 C 197.101562 182.503906 196.550781 179.390625 196.734375 174.972656 C 196.917969 170.816406 197.753906 167.679688 199.566406 164.382812 C 200.441406 162.773438 201.542969 161.125 201.746094 161.125 C 201.828125 161.125 202.03125 161.855469 202.234375 162.753906 C 202.96875 165.96875 205.089844 169.167969 207.859375 171.183594 C 210.957031 173.464844 216.011719 175.175781 221.535156 175.804688 C 226.425781 176.355469 232.582031 175.277344 237.433594 172.976562 C 241.546875 171.039062 244.359375 168.863281 250.269531 163.058594 C 256.589844 156.867188 258.648438 155.15625 261.886719 153.425781 C 266.390625 151.003906 272.503906 149.433594 276.460938 149.660156 C 276.804688 149.679688 277.214844 149.699219 277.398438 149.699219 Z M 277.398438 149.699219" fill="#000000"/><path fill-rule="nonzero" fill-opacity="1" d="M 246.542969 218.550781 C 241.976562 219.710938 240.203125 224.636719 243.160156 228 C 244.789062 229.851562 247.742188 230.625 250.3125 229.871094 C 251.757812 229.464844 253.410156 228.019531 254.0625 226.59375 C 254.957031 224.699219 254.589844 222.234375 253.207031 220.625 C 251.800781 218.976562 248.703125 218.019531 246.542969 218.550781 Z M 246.542969 218.550781" fill="#000000"/><path fill-rule="nonzero" fill-opacity="1" d="M 122.632812 219.914062 C 122.550781 219.976562 122.488281 220.585938 122.488281 221.238281 L 122.488281 222.417969 L 123.570312 222.90625 C 124.875 223.476562 125.628906 224.3125 126.097656 225.738281 C 126.421875 226.714844 126.464844 228.261719 126.523438 243.699219 C 126.566406 254.695312 126.503906 261.148438 126.382812 262.210938 C 126.097656 264.265625 125.34375 265.710938 124.222656 266.34375 C 123.773438 266.585938 123.304688 266.871094 123.183594 266.996094 C 123 267.15625 122.957031 268.296875 123.078125 269.457031 C 123.121094 269.683594 161.820312 269.539062 162.027344 269.335938 C 162.148438 269.214844 162.433594 268.15625 162.636719 266.996094 C 162.863281 265.835938 163.351562 263.1875 163.757812 261.148438 C 164.144531 259.09375 164.472656 257.140625 164.472656 256.832031 C 164.472656 256.121094 163.820312 255.613281 162.902344 255.613281 C 161.71875 255.613281 161.351562 255.898438 160.355469 257.667969 C 158.195312 261.515625 156.460938 263.429688 154.097656 264.613281 C 153.179688 265.058594 152.976562 265.082031 146.230469 265.140625 C 139.546875 265.203125 139.28125 265.183594 138.628906 264.773438 C 137.386719 264 137.367188 263.859375 137.367188 254.390625 L 137.367188 245.835938 L 141.910156 245.835938 C 146.964844 245.835938 147.863281 245.980469 149.328125 247.058594 C 149.921875 247.507812 150.410156 248.117188 150.917969 249.136719 C 151.304688 249.929688 151.632812 250.703125 151.632812 250.847656 C 151.632812 251.558594 153.566406 251.804688 154.140625 251.171875 C 154.445312 250.824219 154.484375 250.011719 154.484375 243.757812 C 154.484375 236.101562 154.527344 236.386719 153.304688 236.144531 C 152.386719 235.960938 151.734375 236.449219 151.285156 237.671875 C 150.652344 239.382812 149.777344 240.421875 148.453125 241.070312 L 147.25 241.664062 L 137.46875 241.664062 L 137.40625 233.273438 L 137.367188 224.902344 L 137.894531 224.476562 C 138.425781 224.066406 138.671875 224.046875 144.273438 224.046875 C 150.796875 224.046875 152 224.167969 153.8125 225.066406 C 155.503906 225.902344 156.726562 227.304688 158.074219 229.992188 C 158.683594 231.195312 159.355469 232.273438 159.558594 232.398438 C 160.414062 232.84375 162.433594 232.476562 162.433594 231.867188 C 162.433594 231.726562 162.25 230.339844 162.027344 228.792969 C 161.089844 222.335938 160.742188 220.464844 160.4375 220.117188 C 160.152344 219.792969 158.988281 219.769531 141.441406 219.769531 C 131.171875 219.769531 122.691406 219.832031 122.632812 219.914062 Z M 122.632812 219.914062" fill="#000000"/><path fill-rule="nonzero" fill-opacity="1" d="M 175.273438 234.941406 C 173.640625 235.65625 171.300781 236.570312 170.054688 236.980469 C 168.792969 237.386719 167.628906 237.875 167.425781 238.097656 C 167.203125 238.34375 167.121094 238.730469 167.160156 239.238281 C 167.203125 239.871094 167.34375 240.074219 167.9375 240.378906 C 169.058594 240.992188 169.914062 242.027344 170.257812 243.210938 C 170.542969 244.105469 170.585938 245.714844 170.585938 253.289062 C 170.585938 259.054688 170.503906 262.675781 170.363281 263.351562 C 170.097656 264.632812 169.117188 265.9375 167.976562 266.566406 L 167.101562 267.054688 L 167.160156 268.296875 L 167.222656 269.539062 L 175.578125 269.519531 C 180.183594 269.5 184.179688 269.480469 184.503906 269.480469 C 185.035156 269.457031 185.054688 269.417969 185.054688 268.257812 L 185.054688 267.078125 L 184.097656 266.667969 C 182.8125 266.140625 181.875 265.324219 181.324219 264.285156 C 180.878906 263.472656 180.878906 263.328125 180.878906 254.59375 C 180.878906 246.449219 180.917969 245.652344 181.265625 244.613281 C 181.773438 243.148438 183.078125 241.152344 183.914062 240.582031 C 185.402344 239.566406 187.03125 240.296875 187.601562 242.273438 C 188.273438 244.554688 189.558594 245.632812 191.636719 245.632812 C 193.023438 245.632812 193.878906 245.308594 194.898438 244.433594 C 195.917969 243.535156 196.425781 242.621094 196.671875 241.316406 C 197.203125 238.464844 195.773438 235.738281 193.042969 234.390625 C 191.761719 233.761719 191.554688 233.71875 189.539062 233.71875 C 187.867188 233.742188 187.132812 233.820312 186.21875 234.167969 C 184.300781 234.882812 181.222656 237.386719 180.347656 238.933594 C 180.082031 239.359375 180.042969 239.15625 179.960938 236.835938 C 179.898438 235.410156 179.757812 234.148438 179.65625 234.046875 C 179.0625 233.476562 178.207031 233.640625 175.273438 234.941406 Z M 175.273438 234.941406" fill="#000000"/><path fill-rule="nonzero" fill-opacity="1" d="M 213.058594 233.925781 C 209.207031 234.597656 204.925781 236.875 202.4375 239.585938 C 200.707031 241.457031 198.976562 244.65625 198.261719 247.304688 C 197.628906 249.605469 197.589844 254.59375 198.179688 256.628906 C 200.605469 265 207.960938 270.3125 217.070312 270.292969 C 225.246094 270.292969 231.703125 266.179688 234.90625 258.929688 C 236.289062 255.835938 236.71875 250.96875 235.945312 247.566406 C 235.210938 244.371094 232.96875 240.480469 230.707031 238.425781 C 228.484375 236.449219 225.347656 234.820312 222.351562 234.128906 C 220.273438 233.640625 215.257812 233.539062 213.058594 233.925781 Z M 218.96875 237.8125 C 219.597656 238.039062 220.394531 238.585938 221.25 239.382812 C 222.308594 240.359375 222.757812 240.992188 223.574219 242.660156 C 224.816406 245.144531 225.304688 247.058594 225.613281 250.359375 C 226.121094 255.875 224.734375 261.476562 222.25 264.144531 C 220.375 266.160156 217.4375 266.792969 214.726562 265.773438 C 211.691406 264.652344 209.285156 260.640625 208.371094 255.164062 C 207.921875 252.453125 208.0625 247.691406 208.65625 245.410156 C 209.53125 242.089844 210.816406 240.011719 212.855469 238.609375 C 214.789062 237.285156 216.664062 237.039062 218.96875 237.8125 Z M 218.96875 237.8125" fill="#000000"/><path fill-rule="nonzero" fill-opacity="1" d="M 251.085938 233.902344 C 250.699219 234.066406 249.457031 234.597656 248.335938 235.125 C 247.214844 235.632812 244.972656 236.488281 243.34375 237.019531 C 241.710938 237.546875 240.347656 237.996094 240.324219 238.015625 C 240.285156 238.039062 240.164062 238.402344 240.082031 238.8125 C 239.898438 239.644531 239.957031 239.726562 241.652344 241.09375 C 243.261719 242.375 243.238281 242.171875 243.300781 252.191406 C 243.34375 257.363281 243.28125 261.699219 243.160156 262.554688 C 242.875 264.632812 242.242188 265.753906 240.9375 266.507812 L 239.878906 267.117188 L 239.917969 268.320312 L 239.980469 269.5 L 248.335938 269.539062 L 256.691406 269.5625 L 256.875 268.339844 C 256.996094 267.464844 256.996094 267.117188 256.8125 267.054688 C 256.179688 266.851562 254.613281 265.609375 254.226562 265.019531 C 253.367188 263.757812 253.328125 262.921875 253.328125 248.300781 C 253.328125 237.304688 253.265625 234.230469 253.0625 234.066406 C 252.613281 233.699219 251.820312 233.640625 251.085938 233.902344 Z M 251.085938 233.902344" fill="#000000"/><path fill-rule="nonzero" fill-opacity="1" d="M 274.910156 233.925781 C 271.894531 234.496094 268.328125 236.246094 266.1875 238.199219 C 264.660156 239.585938 262.949219 241.925781 262.011719 243.863281 C 260.847656 246.242188 260.523438 247.261719 260.113281 249.6875 C 259.074219 255.792969 261.949219 263.105469 266.777344 266.628906 C 269.714844 268.765625 271.894531 269.683594 275.214844 270.191406 C 280.984375 271.085938 286.507812 269.253906 290.234375 265.222656 C 292.214844 263.105469 293.761719 260.398438 293.640625 259.296875 C 293.597656 258.910156 293.332031 258.644531 292.640625 258.277344 L 291.722656 257.789062 L 289.789062 259.703125 C 287.667969 261.824219 286.40625 262.574219 284.140625 263.066406 C 280.230469 263.878906 276.828125 262.839844 273.933594 259.929688 C 271.203125 257.179688 269.835938 253.695312 269.835938 249.480469 C 269.835938 245.023438 271.324219 240.867188 273.605469 239.015625 C 275.421875 237.507812 277.640625 236.980469 279.636719 237.546875 C 281.390625 238.058594 282.371094 239.320312 283.46875 242.414062 C 284.285156 244.777344 284.773438 245.675781 285.546875 246.324219 C 286.667969 247.28125 287.382812 247.546875 288.789062 247.546875 C 294.089844 247.546875 294.78125 241.152344 289.910156 237.222656 C 288.320312 235.941406 285.875 234.757812 283.695312 234.230469 C 281.410156 233.660156 277.089844 233.515625 274.910156 233.925781 Z M 274.910156 233.925781" fill="#000000"/><path fill-rule="nonzero" fill-opacity="1" d="M 308.800781 233.84375 C 306.113281 234.1875 303.117188 235.246094 301.324219 236.46875 C 299 238.078125 297.960938 239.769531 297.960938 241.96875 C 297.960938 243.65625 298.46875 244.796875 299.570312 245.59375 C 301.199219 246.773438 303.238281 246.894531 304.707031 245.9375 C 305.664062 245.308594 306.152344 244.492188 306.824219 242.375 C 307.519531 240.214844 307.945312 239.402344 308.761719 238.566406 C 309.699219 237.609375 310.941406 237.203125 312.46875 237.34375 C 314.734375 237.546875 315.996094 238.953125 316.914062 242.3125 C 317.382812 244.003906 317.933594 247.464844 317.933594 248.6875 L 317.933594 249.523438 L 317.382812 249.21875 C 314.917969 247.976562 310.675781 247.648438 307.234375 248.464844 C 303.542969 249.339844 300.019531 251.601562 298.410156 254.125 C 296.796875 256.648438 296.269531 260.355469 297.164062 263.003906 C 298.9375 268.320312 304.890625 271.332031 311.410156 270.191406 C 312.46875 270.007812 313.816406 269.640625 314.40625 269.378906 C 315.730469 268.765625 317.648438 267.464844 318.421875 266.628906 C 318.769531 266.28125 319.09375 265.996094 319.195312 265.996094 C 319.277344 265.996094 319.542969 266.363281 319.765625 266.8125 C 320.4375 268.113281 321.316406 268.949219 322.597656 269.539062 C 324.800781 270.519531 327.511719 270.457031 329.855469 269.355469 C 331.035156 268.785156 333.21875 266.953125 333.21875 266.507812 C 333.21875 266.363281 332.871094 265.855469 332.441406 265.386719 C 331.75 264.613281 331.628906 264.53125 331.242188 264.753906 C 330.34375 265.222656 329.160156 264.9375 328.734375 264.164062 C 328.429688 263.59375 328.144531 260.089844 328.101562 256.285156 C 327.980469 247.078125 327.207031 242.863281 325.046875 239.644531 C 324.128906 238.261719 322.578125 236.796875 320.988281 235.839844 C 318.117188 234.085938 313.183594 233.273438 308.800781 233.84375 Z M 316.425781 252.699219 C 317.097656 253.046875 317.769531 253.472656 317.914062 253.65625 C 318.199219 254.003906 318.277344 259.726562 318.035156 260.96875 C 317.6875 262.597656 315.773438 264.773438 314.34375 265.160156 C 311.820312 265.875 309.25 264.917969 308.027344 262.820312 C 306.214844 259.726562 306.785156 255.40625 309.292969 253.289062 C 310.574219 252.230469 311.554688 251.925781 313.449219 252.007812 C 314.894531 252.066406 315.386719 252.191406 316.425781 252.699219 Z M 316.425781 252.699219" fill="#000000"/></svg>