<svg xmlns="http://www.w3.org/2000/svg" viewBox="0 0 300 300">
  <path fill="#FFFFFF" d="M 137.128906 36.582031 C 133.695312 36.863281 124.679688 37.996094 122.984375 38.359375 C 110.128906 41.230469 100.871094 44.585938 90.078125 50.363281 C 74.960938 58.40625 59.804688 71.828125 50.101562 85.730469 C 39.433594 101.050781 32.722656 117.664062 29.769531 136.09375 C 28.15625 146.242188 28.277344 162.125 30.054688 172.554688 C 34.460938 198.222656 48.285156 223.28125 67.484375 240.339844 C 98.164062 267.621094 138.382812 277.121094 177.347656 266.289062 C 184.542969 264.265625 188.585938 262.730469 195.742188 259.253906 C 203.945312 255.253906 209.484375 251.9375 215.75 247.25 C 233.453125 233.992188 246.914062 216.371094 254.957031 195.917969 C 263.082031 175.304688 265.105469 152.992188 260.777344 131.324219 C 257.503906 114.835938 252.332031 102.507812 242.347656 87.347656 C 233.007812 73.203125 220.480469 61.5625 204.230469 52.0625 C 195.214844 46.765625 190.972656 44.867188 181.390625 41.753906 C 170.113281 38.117188 161.261719 36.742188 148.042969 36.539062 C 143.152344 36.5 138.261719 36.5 137.128906 36.582031 Z M 162.394531 49.597656 C 172.09375 51.335938 180.339844 53.839844 189.515625 57.964844 C 197.519531 61.5625 208.835938 68.753906 213.363281 73.121094 C 213.726562 73.445312 215.183594 74.738281 216.558594 75.949219 C 221.851562 80.519531 228.886719 88.601562 232.765625 94.542969 C 237.941406 102.386719 243.234375 113.417969 245.457031 120.816406 C 247.804688 128.617188 250.511719 143.695312 250.511719 148.867188 L 250.511719 151.050781 L 246.792969 151.089844 C 244.730469 151.089844 242.226562 151.210938 241.214844 151.375 C 228.238281 153.070312 217.40625 156.992188 207.867188 163.378906 C 201.117188 167.867188 200.390625 168.511719 188.0625 180.636719 C 173.871094 194.542969 167.488281 198.664062 155.199219 201.941406 C 149.699219 203.394531 140.324219 203.515625 134.300781 202.183594 C 122.578125 199.59375 115.828125 195.472656 112.636719 188.925781 C 111.382812 186.335938 111.261719 185.8125 111.261719 182.253906 C 111.261719 178.777344 111.382812 178.171875 112.554688 175.789062 C 116.796875 166.976562 125.933594 161.359375 138.140625 160.023438 C 140.039062 159.820312 145.132812 159.539062 149.457031 159.417969 C 162.394531 159.011719 168.171875 158.082031 176.785156 155.171875 C 190.121094 150.648438 200.632812 141.875 206.089844 130.71875 C 209.039062 124.65625 209.886719 120.777344 209.886719 113.136719 C 209.886719 107.839844 209.726562 106.304688 208.917969 103.234375 C 204.066406 84.800781 187.898438 71.828125 163 66.410156 C 157.945312 65.320312 157.300781 65.28125 146.628906 65.28125 C 136 65.28125 135.269531 65.320312 130.378906 66.371094 C 122.738281 68.027344 114.210938 70.980469 109.886719 73.402344 C 100.75 78.539062 96.507812 81.691406 91.050781 87.308594 C 84.460938 94.097656 81.589844 98.746094 79.894531 105.375 C 77.308594 115.523438 81.429688 126.515625 91.375 136.015625 C 98.890625 143.167969 108.027344 148.503906 119.75 152.464844 C 122.539062 153.394531 124.800781 154.242188 124.800781 154.363281 C 124.800781 154.488281 123.226562 154.972656 121.285156 155.496094 C 119.304688 155.980469 116.273438 156.953125 114.496094 157.640625 C 110.652344 159.09375 109.359375 159.054688 103.015625 157.195312 C 94.40625 154.6875 89.554688 152.585938 82.925781 148.464844 C 70.757812 140.824219 61.945312 129.144531 58.308594 115.84375 C 56.652344 109.742188 55.964844 104.246094 56.488281 100.726562 C 57.054688 96.566406 58.066406 94.785156 63.925781 87.511719 C 69.425781 80.679688 76.253906 74.089844 82.964844 69.121094 C 97.800781 58.085938 114.535156 51.375 132.886719 49.070312 C 139.757812 48.222656 156.167969 48.503906 162.394531 49.597656 Z M 157.542969 76.757812 C 169.910156 78.660156 180.257812 82.941406 187.496094 89.128906 C 194.890625 95.472656 198.972656 104 198.933594 113.136719 C 198.894531 118.269531 198.167969 121.261719 195.742188 126.3125 C 192.628906 132.699219 186.121094 138.84375 178.359375 142.644531 C 172.660156 145.433594 167.527344 147.007812 161.019531 147.9375 C 157.097656 148.503906 146.386719 148.464844 142.183594 147.898438 C 135.390625 146.96875 127.386719 144.582031 121.648438 141.671875 C 117.890625 139.773438 116.71875 138.683594 115.300781 135.894531 C 114.25 133.832031 114.089844 133.144531 114.128906 130.316406 C 114.210938 121.625 120.273438 113.339844 130.863281 107.4375 C 136.363281 104.324219 140.96875 103.273438 148.851562 103.234375 C 154.550781 103.234375 155.683594 103.355469 158.351562 104.164062 C 166.71875 106.789062 169.546875 109.863281 169.183594 115.804688 C 168.78125 121.90625 164.332031 127.324219 155.804688 132.132812 C 153.136719 133.628906 152.613281 134.398438 153.742188 135.246094 C 154.835938 136.09375 160.574219 135.652344 164.453125 134.4375 C 172.417969 131.933594 179.574219 124.171875 180.503906 116.976562 C 181.1875 111.4375 179.328125 105.660156 175.652344 101.859375 C 169.910156 95.957031 159.28125 92.117188 148.691406 92.117188 C 139.839844 92.117188 129.570312 95.230469 121.769531 100.28125 C 118.699219 102.265625 113.523438 106.75 111.300781 109.335938 C 106.207031 115.320312 102.609375 124.132812 103.054688 129.789062 C 103.09375 130.597656 103.015625 131.40625 102.894531 131.566406 C 102.449219 131.972656 96.0625 125.304688 94.164062 122.472656 C 90.644531 117.136719 89.757812 109.945312 91.980469 104.6875 C 94.042969 99.675781 101.398438 91.796875 108.753906 86.703125 C 111.339844 84.882812 117.082031 82.011719 121.367188 80.355469 C 124.15625 79.265625 132.078125 77.324219 135.714844 76.800781 C 137.371094 76.554688 139.191406 76.273438 139.757812 76.191406 C 142.585938 75.75 153.296875 76.070312 157.542969 76.757812 Z M 52.246094 130.113281 C 59.277344 144.097656 70.191406 154.566406 85.675781 162.167969 C 88.625 163.621094 93.113281 165.480469 95.578125 166.328125 L 100.144531 167.867188 L 96.546875 171.503906 C 87.453125 180.839844 81.308594 192.238281 79.328125 203.433594 C 77.46875 214.105469 78.558594 226.476562 82.15625 235.285156 C 82.683594 236.578125 83.007812 237.628906 82.886719 237.628906 C 82.5625 237.628906 76.09375 232.132812 72.980469 229.183594 C 54.308594 211.601562 42.019531 184.355469 40.886719 158.003906 C 40.523438 149.960938 41.453125 140.015625 43.394531 130.71875 C 44 127.769531 46.707031 118.027344 47.113281 117.421875 C 47.234375 117.21875 48 119.117188 48.808594 121.664062 C 49.617188 124.210938 51.152344 128.011719 52.246094 130.113281 Z M 249.742188 162.003906 C 250.472656 162.046875 250.472656 162.207031 249.257812 169.523438 C 247.925781 177.769531 245.136719 187.792969 242.667969 193.453125 C 242.105469 194.746094 241.457031 196.5625 241.214844 197.492188 C 240.972656 198.464844 240.6875 199.230469 240.527344 199.230469 C 240.40625 199.230469 239.234375 198.585938 237.941406 197.777344 C 234.382812 195.632812 231.390625 194.703125 227.269531 194.503906 C 218.132812 193.976562 210.007812 197.898438 197.84375 208.691406 C 187.011719 218.351562 178.441406 223.484375 167.242188 227.121094 C 159.5625 229.628906 153.90625 230.476562 145.214844 230.476562 C 136.484375 230.476562 129.691406 229.546875 120.800781 227.121094 C 114.738281 225.464844 112.433594 225.179688 111.019531 225.910156 C 109.925781 226.515625 110.046875 227.527344 111.460938 229.507812 C 115.179688 234.597656 124.113281 238.640625 135.917969 240.5 C 141.375 241.390625 152.8125 241.1875 158.957031 240.097656 C 176.742188 236.945312 191.617188 229.304688 206.371094 215.683594 C 210.292969 212.125 216.074219 207.921875 218.742188 206.75 C 222.863281 204.929688 227.269531 204.648438 230.90625 205.941406 C 232.402344 206.464844 234.34375 208.164062 234.34375 208.933594 C 234.34375 210.992188 225.003906 222.835938 218.496094 228.980469 C 210.128906 236.863281 202.328125 242.359375 192.425781 247.289062 C 172.296875 257.355469 152.046875 260.546875 129.246094 257.195312 C 110.734375 254.484375 100.183594 247.574219 93.636719 233.789062 C 90.484375 227.121094 89.394531 220.9375 89.757812 212.164062 C 90.121094 203.921875 91.777344 197.695312 95.375 191.148438 C 97.113281 187.953125 99.296875 184.679688 99.699219 184.679688 C 99.863281 184.679688 100.265625 186.136719 100.671875 187.914062 C 102.125 194.300781 106.328125 200.644531 111.828125 204.648438 C 117.96875 209.175781 127.996094 212.570312 138.949219 213.824219 C 148.648438 214.914062 160.855469 212.773438 170.476562 208.203125 C 178.644531 204.363281 184.222656 200.039062 195.941406 188.519531 C 208.472656 176.234375 212.554688 172.835938 218.984375 169.402344 C 227.917969 164.589844 240.042969 161.480469 247.882812 161.921875 C 248.570312 161.964844 249.378906 162.003906 249.742188 162.003906 Z M 249.742188 162.003906 "/>
</svg>
