<!-- Spiral Participation Pattern -->
<svg width="200" height="200" xmlns="http://www.w3.org/2000/svg">
  <defs>
    <pattern id="spiral-pattern" x="0" y="0" width="80" height="80" patternUnits="userSpaceOnUse">
      <g transform="translate(40, 40)">
        <path d="M0,0 Q10,-10 20,-5 T35,5 Q40,15 35,25 T20,35 Q5,35 -5,25 T-10,5 Q-10,-10 0,-15" 
              stroke="#003366" stroke-width="4" fill="none"/>
        <path d="M0,0 Q-10,10 -5,20 T5,35 Q15,40 25,35 T35,20 Q35,5 25,-5 T5,-10 Q-10,-10 -15,0" 
              stroke="#C5A059" stroke-width="4" fill="none" opacity="0.8"/>
      </g>
    </pattern>
  </defs>
  <rect width="200" height="200" fill="#F5F1E8"/>
  <rect width="200" height="200" fill="url(#spiral-pattern)"/>
</svg>
