<?xml version="1.0" standalone="no"?>
<svg version="1.0" xmlns="http://www.w3.org/2000/svg" width="100" height="100" viewBox="0 0 2208 1952" preserveAspectRatio="xMidYMid meet">
<g transform="translate(0,1952) scale(0.1,-0.1)" fill="currentColor" stroke="none">
<path d="M5425 12694 c-221 -21 -493 -75 -580 -114 -11 -5 -43 -16 -71 -23
-27 -8 -75 -25 -105 -37 -66 -27 -298 -136 -319 -150 -8 -6 -26 -16 -40 -22
-60 -29 -284 -183 -380 -262 -104 -84 -294 -264 -360 -341 -211 -244 -433
-609 -522 -855 -11 -30 -23 -64 -28 -75 -31 -68 -79 -257 -110 -430 -7 -38
-21 -106 -30 -150 -10 -44 -21 -120 -24 -170 -4 -49 -9 -115 -12 -145 -10
-107 14 -405 46 -559 64 -315 107 -488 128 -514 5 -7 12 -25 16 -41 11 -47 92
-212 178 -366 91 -161 233 -363 342 -485 86 -97 310 -309 386 -366 30 -23 57
-44 60 -48 15 -19 253 -169 330 -208 30 -15 57 -31 60 -34 5 -6 277 -129 285
-129 3 0 24 -9 48 -19 41 -19 120 -42 287 -82 47 -11 94 -24 105 -29 19 -8 59
-15 245 -42 117 -17 551 -17 655 0 158 27 222 41 350 77 205 57 227 64 239 73
6 5 40 19 76 32 36 13 94 38 130 56 36 17 76 35 90 39 14 4 32 13 40 20 8 7
34 22 56 34 88 44 389 244 424 281 3 3 48 42 100 87 85 72 260 247 260 259 0
2 27 37 61 77 60 71 213 287 240 339 8 14 44 82 80 150 36 68 72 139 79 158 7
19 17 40 21 45 19 25 115 316 135 405 68 316 89 506 80 740 -15 412 -73 687
-229 1095 -15 37 -133 271 -172 340 -100 177 -297 429 -470 599 -121 119 -329
290 -407 334 -23 13 -56 35 -73 48 -18 13 -37 24 -43 24 -7 0 -12 3 -12 8 0 4
-18 15 -40 25 -22 9 -40 21 -40 27 0 5 -4 10 -10 10 -5 0 -67 27 -137 61 -166
79 -203 96 -233 104 -14 3 -34 10 -45 14 -22 9 -89 29 -200 60 -38 11 -135 32
-215 46 -129 24 -175 27 -415 30 -148 2 -288 1 -310 -1z m485 -284 c131 -16
279 -41 340 -57 148 -41 143 -39 340 -116 104 -41 374 -184 414 -219 6 -5 23
-17 37 -26 65 -41 147 -102 184 -136 21 -20 66 -60 100 -88 68 -59 220 -216
266 -274 16 -22 36 -47 44 -56 108 -131 269 -412 360 -629 94 -223 177 -587
187 -819 l3 -75 -130 -7 c-174 -9 -379 -56 -513 -119 -35 -16 -69 -29 -76 -29
-8 0 -19 -6 -25 -14 -7 -8 -24 -17 -39 -21 -25 -6 -113 -56 -217 -124 -125
-81 -248 -186 -475 -407 -235 -229 -286 -272 -459 -386 -65 -43 -154 -88 -226
-113 -27 -9 -59 -21 -70 -26 -27 -11 -139 -36 -197 -44 -150 -20 -360 4 -483
55 -11 4 -40 16 -65 25 -68 25 -194 101 -250 152 -31 28 -61 69 -82 111 -30
60 -33 74 -33 161 0 145 21 198 109 286 54 54 92 81 161 114 206 100 377 138
680 151 110 5 211 11 225 14 14 2 50 7 80 11 66 7 266 65 370 106 190 76 370
208 502 369 50 61 148 227 148 251 0 8 4 19 9 25 5 5 14 27 21 49 84 291 63
535 -70 806 -61 127 -223 299 -385 410 -69 48 -304 162 -385 188 -316 99 -673
117 -990 50 -138 -30 -294 -78 -385 -119 -144 -65 -224 -105 -260 -130 -24
-17 -48 -30 -52 -30 -5 0 -18 -8 -29 -17 -10 -10 -53 -44 -95 -76 -100 -75
-224 -206 -273 -287 -22 -36 -43 -67 -46 -70 -22 -17 -83 -201 -93 -281 -37
-295 138 -617 458 -842 44 -31 85 -60 90 -65 10 -8 60 -38 125 -75 113 -64
288 -140 344 -149 31 -5 -218 -98 -262 -98 -100 0 -295 52 -462 122 -190 80
-296 153 -450 307 -157 157 -230 266 -321 476 -5 11 -22 75 -39 142 -25 101
-30 142 -30 241 0 66 5 143 10 172 27 142 318 493 561 678 52 39 105 79 119
90 150 113 401 247 585 312 111 39 240 80 295 95 58 15 303 52 380 58 105 8
342 6 420 -3z m71 -701 c204 -40 428 -129 578 -231 135 -90 210 -174 281 -313
47 -90 59 -124 76 -210 38 -188 1 -361 -118 -558 -69 -115 -262 -264 -423
-327 -33 -13 -65 -27 -70 -31 -13 -10 -133 -36 -250 -55 -106 -17 -346 -19
-460 -4 -44 6 -109 15 -145 19 -36 5 -103 21 -150 36 -373 121 -486 298 -358
564 52 107 113 172 264 284 57 42 207 112 314 147 134 44 290 52 404 21 215
-59 300 -143 299 -291 -1 -97 -41 -190 -113 -260 -64 -64 -171 -136 -279 -191
l-76 -38 95 0 c198 -1 372 66 506 195 94 91 134 189 135 326 1 161 -48 265
-171 366 -116 94 -246 143 -461 172 -94 13 -224 3 -334 -25 -33 -9 -77 -20
-98 -26 -92 -23 -267 -105 -369 -173 -77 -51 -202 -170 -262 -251 -93 -122
-166 -307 -166 -420 l-1 -50 -92 95 c-100 102 -135 159 -163 270 -34 132 -19
251 44 355 61 100 189 239 270 294 20 14 42 29 47 34 52 45 320 172 445 211
225 69 311 83 531 85 132 1 188 -3 270 -20z m-2626 -1158 c27 -85 104 -240
157 -318 15 -23 28 -46 28 -51 0 -5 7 -16 17 -23 9 -8 24 -27 33 -42 50 -82
247 -266 395 -369 68 -47 184 -114 215 -123 14 -4 27 -11 30 -15 9 -13 244
-102 283 -108 21 -2 40 -9 43 -14 3 -4 -30 -48 -73 -96 -134 -148 -208 -259
-293 -434 -107 -222 -145 -404 -137 -658 5 -145 33 -323 65 -411 5 -13 12 -36
16 -52 6 -26 5 -27 -16 -15 -13 7 -25 16 -28 19 -3 3 -32 27 -65 54 -47 37
-245 232 -245 242 0 1 -41 53 -91 115 -50 62 -105 137 -122 166 -41 69 -47 79
-78 127 -43 67 -156 304 -192 406 -69 190 -128 438 -148 618 -14 131 -6 495
14 611 37 208 73 356 114 465 l26 70 13 -40 c7 -22 24 -78 39 -124z m4811
-923 c33 -53 -71 -556 -156 -755 -22 -51 -40 -96 -40 -101 0 -4 -6 -16 -13
-27 -13 -17 -16 -17 -43 -2 -92 50 -169 70 -285 74 -97 4 -129 2 -193 -16
-153 -42 -323 -145 -554 -337 -363 -302 -587 -416 -977 -496 -146 -30 -461
-32 -595 -4 -163 34 -305 68 -315 76 -5 4 -30 12 -55 18 -25 6 -85 25 -133 42
-49 17 -91 30 -93 27 -5 -5 177 -187 187 -187 4 0 14 -6 21 -13 17 -16 137
-86 213 -125 195 -97 577 -132 865 -77 108 20 261 60 305 80 17 7 55 22 85 33
123 44 287 135 410 227 15 11 40 29 56 40 33 22 227 177 293 233 192 165 356
234 504 213 67 -9 114 -29 136 -55 11 -13 8 -24 -19 -68 -32 -53 -129 -188
-141 -198 -3 -3 -29 -32 -57 -65 -80 -96 -149 -164 -278 -278 -116 -101 -149
-126 -309 -234 -93 -63 -362 -199 -433 -219 -31 -9 -61 -20 -67 -24 -17 -12
-136 -48 -215 -65 -41 -10 -85 -21 -98 -26 -12 -5 -71 -16 -130 -26 -135 -22
-566 -25 -682 -5 -269 46 -528 132 -661 219 -104 67 -161 139 -253 319 -42 81
-86 207 -117 334 -23 92 -18 309 9 407 55 203 137 397 201 474 l28 33 6 -65
c8 -70 35 -133 100 -231 105 -160 324 -307 555 -372 147 -41 191 -48 352 -53
174 -6 267 6 454 58 101 28 312 126 357 165 8 8 21 14 27 14 7 0 12 4 12 9 0
5 9 12 20 16 39 12 237 184 440 382 141 138 165 159 295 269 195 165 448 291
697 349 114 26 272 34 284 13z"/>
<path d="M14815 10826 c-106 -44 -175 -149 -175 -265 0 -100 74 -211 169 -255
68 -30 206 -29 278 3 198 88 210 381 22 502 -48 30 -60 33 -143 36 -79 3 -99
0 -151 -21z"/>
<path d="M9040 10726 l0 -73 59 -22 c52 -19 62 -27 80 -64 42 -88 42 -97 39
-1017 -3 -703 -6 -893 -17 -925 -16 -49 -87 -120 -129 -129 -29 -7 -30 -8 -27
-69 l2 -62 941 -3 940 -2 7 62 c10 91 32 235 59 378 13 69 27 149 30 177 7 60
11 58 -96 67 -65 5 -67 3 -123 -99 -61 -110 -178 -275 -220 -309 -79 -66 -100
-69 -396 -74 -169 -2 -280 0 -305 7 -59 16 -101 56 -124 118 -19 50 -20 77
-20 431 0 281 3 381 12 390 9 9 76 12 239 12 237 0 275 -6 310 -47 27 -30 91
-159 103 -205 6 -27 8 -28 82 -28 l77 0 -7 99 c-9 126 -9 499 0 591 l7 70 -70
0 c-77 0 -66 9 -114 -95 -33 -71 -113 -150 -167 -165 -28 -7 -115 -10 -244 -8
-186 3 -201 4 -214 23 -12 17 -14 76 -12 370 3 327 4 353 23 390 11 22 36 50
54 63 34 22 41 23 255 22 122 -1 246 -6 276 -11 57 -10 170 -57 170 -71 0 -4
6 -8 13 -8 21 0 92 -81 127 -145 18 -33 49 -89 69 -125 l37 -65 68 -1 c99 -2
109 2 101 40 -17 84 -49 257 -74 401 -15 89 -31 166 -35 173 -5 9 -215 12
-897 12 l-889 0 0 -74z"/>
<path d="M12121 10110 c-69 -15 -165 -64 -217 -112 -26 -23 -71 -79 -100 -123
l-54 -80 0 141 c0 124 -2 143 -18 157 -27 24 -59 21 -127 -12 -109 -52 -159
-73 -290 -118 -71 -25 -141 -48 -154 -52 -23 -7 -24 -11 -22 -71 3 -69 10 -80
54 -80 35 0 83 -50 91 -94 10 -56 8 -1009 -3 -1043 -17 -57 -44 -92 -88 -115
l-43 -23 0 -63 0 -62 417 2 416 3 0 59 c0 57 -1 60 -29 69 -40 13 -105 58
-118 82 -6 11 -15 23 -20 26 -25 19 -35 153 -35 474 0 321 6 397 37 516 18 69
108 176 157 185 53 10 83 -10 111 -73 43 -97 48 -106 81 -139 39 -39 80 -49
171 -39 64 7 69 9 117 58 86 89 103 191 54 328 -51 141 -229 232 -388 199z"/>
<path d="M13300 10091 c-109 -23 -271 -91 -357 -149 -87 -58 -190 -163 -233
-238 -94 -161 -129 -285 -137 -474 -4 -115 -2 -148 16 -225 55 -231 188 -428
376 -553 69 -45 210 -103 311 -127 94 -22 245 -30 324 -16 125 21 175 33 185
42 5 5 15 9 22 9 7 0 37 11 67 25 30 14 59 25 64 25 13 0 138 95 191 144 47
45 137 176 169 247 59 135 75 219 76 409 1 170 -6 215 -53 352 -55 160 -225
358 -369 429 -37 19 -68 37 -70 42 -2 4 -8 7 -14 7 -5 0 -24 6 -41 14 -122 55
-360 72 -527 37z m260 -186 c82 -29 176 -128 220 -231 107 -250 105 -772 -5
-982 -28 -54 -93 -129 -129 -147 -134 -70 -289 -39 -390 79 -70 82 -116 200
-151 386 -31 169 -15 518 26 565 5 5 9 17 9 28 0 10 14 53 31 95 70 170 239
260 389 207z"/>
<path d="M15029 10069 c-103 -50 -244 -103 -364 -136 -49 -14 -96 -27 -102
-29 -9 -2 -13 -24 -13 -63 l0 -59 55 -31 c101 -57 96 -21 93 -601 l-3 -505
-34 -63 c-28 -51 -42 -67 -78 -83 l-43 -19 0 -60 0 -60 409 0 408 0 6 36 c10
60 -1 89 -37 102 -47 17 -87 64 -104 124 -14 46 -17 152 -19 758 -3 642 -5
706 -20 718 -28 21 -66 14 -154 -29z"/>
<path d="M16245 10099 c-90 -15 -254 -76 -328 -122 -105 -66 -237 -203 -290
-302 -108 -201 -154 -453 -118 -640 45 -235 121 -379 273 -520 248 -230 650
-281 942 -121 70 39 233 169 235 188 1 4 13 20 27 35 27 29 114 203 114 228 0
24 -53 73 -85 80 -28 5 -37 -1 -111 -77 -44 -46 -93 -90 -110 -98 -16 -8 -40
-22 -54 -31 -14 -9 -59 -27 -100 -39 -107 -32 -229 -26 -320 17 -204 94 -317
295 -336 596 -7 104 9 272 27 283 5 3 9 15 9 27 0 22 33 108 62 162 64 117
226 183 344 140 54 -20 138 -99 148 -140 4 -14 25 -73 48 -132 51 -133 95
-185 170 -203 113 -28 203 6 256 96 20 35 23 49 19 124 -3 56 -12 101 -25 130
-24 53 -87 131 -140 171 -20 16 -42 33 -49 39 -32 27 -173 81 -258 99 -100 22
-254 26 -350 10z"/>
<path d="M17790 10094 c-47 -8 -92 -18 -100 -23 -9 -5 -31 -12 -50 -16 -74
-15 -200 -93 -269 -165 -81 -85 -112 -237 -62 -311 56 -83 210 -115 309 -65
44 23 82 68 82 98 0 7 12 54 27 103 45 151 123 223 229 212 95 -10 170 -77
206 -185 21 -61 64 -369 54 -379 -3 -4 -22 1 -42 10 -19 10 -78 23 -130 29
-85 11 -105 10 -212 -10 -122 -22 -272 -74 -318 -111 -15 -11 -32 -21 -38 -21
-7 0 -45 -34 -85 -76 -83 -88 -124 -167 -149 -286 -30 -142 9 -282 112 -403
63 -74 66 -77 146 -118 103 -53 178 -70 315 -71 99 0 131 3 183 22 94 32 179
80 238 135 l53 48 15 -35 c25 -61 64 -102 129 -137 60 -33 66 -34 172 -34 107
0 112 1 188 38 42 21 77 42 77 47 0 6 5 10 11 10 17 0 68 56 79 86 8 19 5 37
-11 75 -23 53 -46 62 -83 34 -28 -21 -72 -18 -95 6 -29 31 -40 119 -46 379
-12 479 -65 733 -180 861 -18 20 -36 43 -41 51 -11 18 -126 108 -138 108 -5 0
-23 11 -40 24 -17 13 -58 31 -91 41 -33 9 -71 22 -85 28 -42 17 -266 18 -360
1z m335 -900 c52 -24 81 -58 101 -118 24 -71 13 -296 -18 -376 -36 -94 -96
-141 -195 -155 -178 -24 -306 136 -291 363 11 157 90 262 226 302 44 13 134 5
177 -16z"/>
</g>
</svg>
