<svg xmlns="http://www.w3.org/2000/svg" xmlns:xlink="http://www.w3.org/1999/xlink" width="600" zoomAndPan="magnify" viewBox="0 0 450 449.999984" height="600" preserveAspectRatio="xMidYMid meet" version="1.0"><path fill="#000000" d="M 220.617188 124.289062 C 218.886719 124.433594 214.339844 125.003906 213.484375 125.183594 C 207.003906 126.632812 202.335938 128.320312 196.894531 131.234375 C 189.273438 135.285156 181.632812 142.046875 176.742188 149.050781 C 171.359375 156.769531 167.976562 165.140625 166.488281 174.425781 C 165.675781 179.535156 165.734375 187.539062 166.632812 192.792969 C 168.851562 205.722656 175.824219 218.347656 185.503906 226.941406 C 200.972656 240.6875 221.25 245.472656 240.894531 240.015625 C 244.523438 239 246.5625 238.222656 250.167969 236.472656 C 254.304688 234.457031 257.097656 232.789062 260.257812 230.425781 C 269.183594 223.746094 275.96875 214.867188 280.027344 204.5625 C 284.121094 194.175781 285.140625 182.9375 282.960938 172.023438 C 281.308594 163.714844 278.699219 157.503906 273.667969 149.867188 C 268.960938 142.738281 262.640625 136.875 254.449219 132.089844 C 249.902344 129.421875 247.765625 128.464844 242.933594 126.894531 C 237.25 125.0625 232.785156 124.371094 226.121094 124.269531 C 223.65625 124.25 221.1875 124.25 220.617188 124.289062 Z M 233.355469 130.847656 C 238.246094 131.722656 242.40625 132.984375 247.03125 135.0625 C 251.066406 136.875 256.773438 140.5 259.054688 142.699219 C 259.238281 142.859375 259.972656 143.511719 260.664062 144.125 C 263.335938 146.425781 266.878906 150.496094 268.835938 153.492188 C 271.445312 157.441406 274.117188 163 275.238281 166.726562 C 276.417969 170.65625 277.785156 178.253906 277.785156 180.859375 L 277.785156 181.960938 L 275.910156 181.980469 C 274.871094 181.980469 273.605469 182.039062 273.097656 182.121094 C 266.554688 182.976562 261.09375 184.953125 256.28125 188.171875 C 252.878906 190.429688 252.511719 190.757812 246.296875 196.867188 C 239.144531 203.871094 235.921875 205.949219 229.726562 207.597656 C 226.957031 208.332031 222.226562 208.390625 219.191406 207.71875 C 213.28125 206.417969 209.878906 204.339844 208.269531 201.039062 C 207.636719 199.738281 207.574219 199.472656 207.574219 197.679688 C 207.574219 195.929688 207.636719 195.625 208.226562 194.421875 C 210.367188 189.984375 214.972656 187.152344 221.128906 186.480469 C 222.085938 186.378906 224.652344 186.234375 226.835938 186.175781 C 233.355469 185.972656 236.269531 185.503906 240.609375 184.035156 C 247.335938 181.753906 252.636719 177.335938 255.386719 171.714844 C 256.875 168.660156 257.300781 166.707031 257.300781 162.859375 C 257.300781 160.191406 257.21875 159.417969 256.8125 157.867188 C 254.367188 148.582031 246.214844 142.046875 233.660156 139.316406 C 231.113281 138.769531 230.789062 138.746094 225.40625 138.746094 C 220.046875 138.746094 219.679688 138.769531 217.214844 139.296875 C 213.363281 140.132812 209.0625 141.617188 206.882812 142.839844 C 202.277344 145.425781 200.136719 147.015625 197.386719 149.847656 C 194.0625 153.265625 192.617188 155.609375 191.761719 158.949219 C 190.457031 164.058594 192.535156 169.597656 197.546875 174.382812 C 201.339844 177.988281 205.945312 180.675781 211.855469 182.671875 C 213.261719 183.140625 214.402344 183.566406 214.402344 183.628906 C 214.402344 183.691406 213.609375 183.933594 212.628906 184.199219 C 211.628906 184.445312 210.101562 184.933594 209.207031 185.277344 C 207.269531 186.011719 206.617188 185.992188 203.417969 185.054688 C 199.078125 183.792969 196.632812 182.734375 193.289062 180.65625 C 187.15625 176.808594 182.710938 170.921875 180.878906 164.222656 C 180.042969 161.148438 179.695312 158.378906 179.960938 156.605469 C 180.246094 154.507812 180.753906 153.613281 183.710938 149.949219 C 186.480469 146.507812 189.925781 143.1875 193.308594 140.683594 C 200.789062 135.121094 209.226562 131.742188 218.476562 130.582031 C 221.941406 130.152344 230.21875 130.296875 233.355469 130.847656 Z M 230.910156 144.53125 C 237.144531 145.488281 242.363281 147.648438 246.011719 150.761719 C 249.742188 153.960938 251.800781 158.257812 251.777344 162.859375 C 251.757812 165.445312 251.390625 166.953125 250.167969 169.496094 C 248.601562 172.714844 245.320312 175.808594 241.40625 177.722656 C 238.53125 179.128906 235.945312 179.921875 232.664062 180.390625 C 230.6875 180.675781 225.285156 180.65625 223.164062 180.371094 C 219.742188 179.902344 215.707031 178.703125 212.8125 177.234375 C 210.917969 176.277344 210.328125 175.726562 209.613281 174.324219 C 209.082031 173.285156 209 172.9375 209.023438 171.511719 C 209.0625 167.132812 212.121094 162.960938 217.460938 159.988281 C 220.230469 158.417969 222.554688 157.890625 226.527344 157.867188 C 229.402344 157.867188 229.972656 157.929688 231.316406 158.335938 C 235.535156 159.660156 236.964844 161.207031 236.78125 164.203125 C 236.574219 167.277344 234.335938 170.007812 230.035156 172.429688 C 228.6875 173.183594 228.421875 173.570312 228.996094 173.996094 C 229.542969 174.425781 232.4375 174.199219 234.394531 173.589844 C 238.410156 172.328125 242.015625 168.417969 242.484375 164.792969 C 242.832031 162.003906 241.894531 159.089844 240.039062 157.175781 C 237.144531 154.203125 231.785156 152.269531 226.445312 152.269531 C 221.984375 152.269531 216.808594 153.835938 212.875 156.382812 C 211.324219 157.378906 208.714844 159.640625 207.59375 160.945312 C 205.027344 163.957031 203.214844 168.398438 203.4375 171.25 C 203.457031 171.65625 203.417969 172.0625 203.355469 172.144531 C 203.132812 172.347656 199.914062 168.988281 198.953125 167.5625 C 197.179688 164.875 196.734375 161.25 197.855469 158.601562 C 198.894531 156.078125 202.601562 152.105469 206.3125 149.539062 C 207.617188 148.625 210.511719 147.179688 212.671875 146.34375 C 214.078125 145.792969 218.070312 144.816406 219.90625 144.550781 C 220.742188 144.429688 221.65625 144.285156 221.941406 144.246094 C 223.371094 144.023438 228.769531 144.183594 230.910156 144.53125 Z M 177.820312 171.410156 C 181.367188 178.457031 186.867188 183.730469 194.675781 187.558594 C 196.164062 188.292969 198.425781 189.230469 199.667969 189.65625 L 201.96875 190.429688 L 200.15625 192.261719 C 195.570312 196.96875 192.472656 202.710938 191.476562 208.351562 C 190.539062 213.726562 191.085938 219.957031 192.902344 224.398438 C 193.167969 225.050781 193.328125 225.578125 193.269531 225.578125 C 193.105469 225.578125 189.84375 222.808594 188.273438 221.324219 C 178.859375 212.464844 172.664062 198.738281 172.09375 185.460938 C 171.910156 181.410156 172.378906 176.398438 173.355469 171.714844 C 173.664062 170.230469 175.027344 165.320312 175.230469 165.015625 C 175.292969 164.914062 175.679688 165.871094 176.089844 167.15625 C 176.496094 168.4375 177.269531 170.351562 177.820312 171.410156 Z M 277.398438 187.476562 C 277.761719 187.5 277.761719 187.578125 277.152344 191.265625 C 276.480469 195.417969 275.074219 200.46875 273.832031 203.320312 C 273.546875 203.972656 273.21875 204.890625 273.097656 205.355469 C 272.972656 205.847656 272.832031 206.234375 272.75 206.234375 C 272.6875 206.234375 272.097656 205.90625 271.445312 205.5 C 269.652344 204.421875 268.144531 203.953125 266.066406 203.851562 C 261.460938 203.585938 257.363281 205.5625 251.230469 211 C 245.765625 215.863281 241.445312 218.453125 235.800781 220.285156 C 231.929688 221.546875 229.074219 221.972656 224.695312 221.972656 C 220.292969 221.972656 216.867188 221.503906 212.386719 220.285156 C 209.328125 219.449219 208.167969 219.304688 207.453125 219.671875 C 206.902344 219.976562 206.964844 220.488281 207.675781 221.484375 C 209.550781 224.050781 214.054688 226.085938 220.007812 227.023438 C 222.757812 227.472656 228.527344 227.371094 231.625 226.820312 C 240.589844 225.230469 248.089844 221.382812 255.527344 214.519531 C 257.507812 212.730469 260.421875 210.609375 261.765625 210.019531 C 263.84375 209.105469 266.066406 208.960938 267.898438 209.613281 C 268.652344 209.878906 269.632812 210.734375 269.632812 211.121094 C 269.632812 212.160156 264.925781 218.125 261.644531 221.21875 C 257.425781 225.191406 253.492188 227.960938 248.5 230.445312 C 238.347656 235.515625 228.136719 237.125 216.644531 235.433594 C 207.308594 234.070312 201.992188 230.589844 198.691406 223.644531 C 197.101562 220.285156 196.550781 217.167969 196.734375 212.75 C 196.917969 208.59375 197.753906 205.460938 199.566406 202.160156 C 200.441406 200.550781 201.542969 198.902344 201.746094 198.902344 C 201.828125 198.902344 202.03125 199.636719 202.234375 200.53125 C 202.96875 203.75 205.089844 206.945312 207.859375 208.960938 C 210.957031 211.242188 216.011719 212.953125 221.535156 213.585938 C 226.425781 214.132812 232.582031 213.054688 237.433594 210.753906 C 241.546875 208.820312 244.359375 206.640625 250.269531 200.835938 C 256.589844 194.644531 258.648438 192.933594 261.886719 191.203125 C 266.390625 188.78125 272.503906 187.214844 276.460938 187.4375 C 276.804688 187.457031 277.214844 187.476562 277.398438 187.476562 Z M 277.398438 187.476562 " fill-opacity="1" fill-rule="nonzero"/><path fill="#000000" d="M 246.542969 256.328125 C 241.976562 257.488281 240.203125 262.417969 243.160156 265.777344 C 244.789062 267.628906 247.742188 268.402344 250.3125 267.648438 C 251.757812 267.242188 253.410156 265.796875 254.0625 264.371094 C 254.957031 262.476562 254.589844 260.011719 253.207031 258.40625 C 251.800781 256.753906 248.703125 255.796875 246.542969 256.328125 Z M 246.542969 256.328125 " fill-opacity="1" fill-rule="nonzero"/><path fill="#000000" d="M 122.632812 257.691406 C 122.550781 257.753906 122.488281 258.363281 122.488281 259.015625 L 122.488281 260.195312 L 123.570312 260.6875 C 124.875 261.253906 125.628906 262.089844 126.097656 263.515625 C 126.421875 264.492188 126.464844 266.042969 126.523438 281.476562 C 126.566406 292.472656 126.503906 298.929688 126.382812 299.988281 C 126.097656 302.042969 125.34375 303.488281 124.222656 304.121094 C 123.773438 304.367188 123.304688 304.652344 123.183594 304.773438 C 123 304.9375 122.957031 306.078125 123.078125 307.238281 C 123.121094 307.460938 161.820312 307.320312 162.027344 307.113281 C 162.148438 306.992188 162.433594 305.933594 162.636719 304.773438 C 162.863281 303.613281 163.351562 300.964844 163.757812 298.929688 C 164.144531 296.871094 164.472656 294.917969 164.472656 294.613281 C 164.472656 293.898438 163.820312 293.390625 162.902344 293.390625 C 161.71875 293.390625 161.351562 293.675781 160.355469 295.445312 C 158.195312 299.296875 156.460938 301.210938 154.097656 302.390625 C 153.179688 302.839844 152.976562 302.859375 146.230469 302.921875 C 139.546875 302.980469 139.28125 302.960938 138.628906 302.554688 C 137.386719 301.78125 137.367188 301.636719 137.367188 292.167969 L 137.367188 283.613281 L 141.910156 283.613281 C 146.964844 283.613281 147.863281 283.757812 149.328125 284.835938 C 149.921875 285.285156 150.410156 285.894531 150.917969 286.914062 C 151.304688 287.707031 151.632812 288.480469 151.632812 288.625 C 151.632812 289.335938 153.566406 289.582031 154.140625 288.949219 C 154.445312 288.605469 154.484375 287.789062 154.484375 281.539062 C 154.484375 273.882812 154.527344 274.167969 153.304688 273.921875 C 152.386719 273.738281 151.734375 274.226562 151.285156 275.449219 C 150.652344 277.160156 149.777344 278.199219 148.453125 278.851562 L 147.25 279.441406 L 137.46875 279.441406 L 137.40625 271.050781 L 137.367188 262.679688 L 137.894531 262.253906 C 138.425781 261.847656 138.671875 261.824219 144.273438 261.824219 C 150.796875 261.824219 152 261.949219 153.8125 262.84375 C 155.503906 263.679688 156.726562 265.085938 158.074219 267.773438 C 158.683594 268.972656 159.355469 270.054688 159.558594 270.175781 C 160.414062 270.625 162.433594 270.257812 162.433594 269.644531 C 162.433594 269.503906 162.25 268.117188 162.027344 266.570312 C 161.089844 260.117188 160.742188 258.242188 160.4375 257.894531 C 160.152344 257.570312 158.988281 257.550781 141.441406 257.550781 C 131.171875 257.550781 122.691406 257.609375 122.632812 257.691406 Z M 122.632812 257.691406 " fill-opacity="1" fill-rule="nonzero"/><path fill="#000000" d="M 175.273438 272.71875 C 173.640625 273.433594 171.300781 274.351562 170.054688 274.757812 C 168.792969 275.164062 167.628906 275.652344 167.425781 275.875 C 167.203125 276.121094 167.121094 276.507812 167.160156 277.015625 C 167.203125 277.648438 167.34375 277.851562 167.9375 278.15625 C 169.058594 278.769531 169.914062 279.808594 170.257812 280.988281 C 170.542969 281.882812 170.585938 283.492188 170.585938 291.066406 C 170.585938 296.832031 170.503906 300.457031 170.363281 301.128906 C 170.097656 302.410156 169.117188 303.714844 167.976562 304.34375 L 167.101562 304.835938 L 167.160156 306.078125 L 167.222656 307.320312 L 175.578125 307.296875 C 180.183594 307.277344 184.179688 307.257812 184.503906 307.257812 C 185.035156 307.238281 185.054688 307.195312 185.054688 306.035156 L 185.054688 304.855469 L 184.097656 304.445312 C 182.8125 303.917969 181.875 303.101562 181.324219 302.066406 C 180.878906 301.25 180.878906 301.109375 180.878906 292.371094 C 180.878906 284.226562 180.917969 283.433594 181.265625 282.394531 C 181.773438 280.925781 183.078125 278.929688 183.914062 278.359375 C 185.402344 277.34375 187.03125 278.078125 187.601562 280.050781 C 188.273438 282.332031 189.558594 283.410156 191.636719 283.410156 C 193.023438 283.410156 193.878906 283.085938 194.898438 282.210938 C 195.917969 281.3125 196.425781 280.398438 196.671875 279.09375 C 197.203125 276.242188 195.773438 273.515625 193.042969 272.171875 C 191.761719 271.539062 191.554688 271.5 189.539062 271.5 C 187.867188 271.519531 187.132812 271.601562 186.21875 271.945312 C 184.300781 272.660156 181.222656 275.164062 180.347656 276.710938 C 180.082031 277.140625 180.042969 276.9375 179.960938 274.613281 C 179.898438 273.1875 179.757812 271.925781 179.65625 271.824219 C 179.0625 271.253906 178.207031 271.417969 175.273438 272.71875 Z M 175.273438 272.71875 " fill-opacity="1" fill-rule="nonzero"/><path fill="#000000" d="M 213.058594 271.703125 C 209.207031 272.375 204.925781 274.65625 202.4375 277.363281 C 200.707031 279.238281 198.976562 282.433594 198.261719 285.082031 C 197.628906 287.382812 197.589844 292.371094 198.179688 294.40625 C 200.605469 302.777344 207.960938 308.09375 217.070312 308.070312 C 225.246094 308.070312 231.703125 303.957031 234.90625 296.710938 C 236.289062 293.613281 236.71875 288.746094 235.945312 285.347656 C 235.210938 282.148438 232.96875 278.257812 230.707031 276.203125 C 228.484375 274.226562 225.347656 272.597656 222.351562 271.90625 C 220.273438 271.417969 215.257812 271.316406 213.058594 271.703125 Z M 218.96875 275.59375 C 219.597656 275.816406 220.394531 276.367188 221.25 277.160156 C 222.308594 278.136719 222.757812 278.769531 223.574219 280.4375 C 224.816406 282.921875 225.304688 284.835938 225.613281 288.136719 C 226.121094 293.65625 224.734375 299.253906 222.25 301.921875 C 220.375 303.9375 217.4375 304.570312 214.726562 303.550781 C 211.691406 302.429688 209.285156 298.417969 208.371094 292.941406 C 207.921875 290.234375 208.0625 285.46875 208.65625 283.1875 C 209.53125 279.867188 210.816406 277.792969 212.855469 276.386719 C 214.789062 275.0625 216.664062 274.816406 218.96875 275.59375 Z M 218.96875 275.59375 " fill-opacity="1" fill-rule="nonzero"/><path fill="#000000" d="M 251.085938 271.683594 C 250.699219 271.84375 249.457031 272.375 248.335938 272.902344 C 247.214844 273.414062 244.972656 274.269531 243.34375 274.796875 C 241.710938 275.328125 240.347656 275.773438 240.324219 275.796875 C 240.285156 275.816406 240.164062 276.183594 240.082031 276.589844 C 239.898438 277.425781 239.957031 277.507812 241.652344 278.871094 C 243.261719 280.152344 243.238281 279.949219 243.300781 289.96875 C 243.34375 295.140625 243.28125 299.476562 243.160156 300.332031 C 242.875 302.410156 242.242188 303.53125 240.9375 304.285156 L 239.878906 304.894531 L 239.917969 306.097656 L 239.980469 307.277344 L 248.335938 307.320312 L 256.691406 307.339844 L 256.875 306.117188 C 256.996094 305.242188 256.996094 304.894531 256.8125 304.835938 C 256.179688 304.628906 254.613281 303.386719 254.226562 302.796875 C 253.367188 301.535156 253.328125 300.699219 253.328125 286.078125 C 253.328125 275.082031 253.265625 272.007812 253.0625 271.84375 C 252.613281 271.476562 251.820312 271.417969 251.085938 271.683594 Z M 251.085938 271.683594 " fill-opacity="1" fill-rule="nonzero"/><path fill="#000000" d="M 274.910156 271.703125 C 271.894531 272.273438 268.328125 274.023438 266.1875 275.980469 C 264.660156 277.363281 262.949219 279.707031 262.011719 281.640625 C 260.847656 284.023438 260.523438 285.039062 260.113281 287.464844 C 259.074219 293.574219 261.949219 300.882812 266.777344 304.40625 C 269.714844 306.542969 271.894531 307.460938 275.214844 307.96875 C 280.984375 308.867188 286.507812 307.035156 290.234375 303 C 292.214844 300.882812 293.761719 298.175781 293.640625 297.074219 C 293.597656 296.6875 293.332031 296.425781 292.640625 296.058594 L 291.722656 295.570312 L 289.789062 297.484375 C 287.667969 299.601562 286.40625 300.355469 284.140625 300.84375 C 280.230469 301.65625 276.828125 300.617188 273.933594 297.707031 C 271.203125 294.957031 269.835938 291.476562 269.835938 287.261719 C 269.835938 282.800781 271.324219 278.644531 273.605469 276.792969 C 275.421875 275.285156 277.640625 274.757812 279.636719 275.328125 C 281.390625 275.835938 282.371094 277.097656 283.46875 280.195312 C 284.285156 282.554688 284.773438 283.453125 285.546875 284.105469 C 286.667969 285.0625 287.382812 285.324219 288.789062 285.324219 C 294.089844 285.324219 294.78125 278.929688 289.910156 275 C 288.320312 273.71875 285.875 272.539062 283.695312 272.007812 C 281.410156 271.4375 277.089844 271.296875 274.910156 271.703125 Z M 274.910156 271.703125 " fill-opacity="1" fill-rule="nonzero"/><path fill="#000000" d="M 308.800781 271.621094 C 306.113281 271.96875 303.117188 273.027344 301.324219 274.246094 C 299 275.855469 297.960938 277.546875 297.960938 279.746094 C 297.960938 281.4375 298.46875 282.578125 299.570312 283.371094 C 301.199219 284.550781 303.238281 284.675781 304.707031 283.71875 C 305.664062 283.085938 306.152344 282.269531 306.824219 280.152344 C 307.519531 277.996094 307.945312 277.179688 308.761719 276.34375 C 309.699219 275.386719 310.941406 274.980469 312.46875 275.125 C 314.734375 275.328125 315.996094 276.730469 316.914062 280.09375 C 317.382812 281.78125 317.933594 285.246094 317.933594 286.464844 L 317.933594 287.300781 L 317.382812 286.996094 C 314.917969 285.753906 310.675781 285.425781 307.234375 286.242188 C 303.542969 287.117188 300.019531 289.378906 298.410156 291.902344 C 296.796875 294.429688 296.269531 298.132812 297.164062 300.78125 C 298.9375 306.097656 304.890625 309.109375 311.410156 307.96875 C 312.46875 307.785156 313.816406 307.421875 314.40625 307.15625 C 315.730469 306.542969 317.648438 305.242188 318.421875 304.40625 C 318.769531 304.058594 319.09375 303.773438 319.195312 303.773438 C 319.277344 303.773438 319.542969 304.140625 319.765625 304.589844 C 320.4375 305.894531 321.316406 306.726562 322.597656 307.320312 C 324.800781 308.296875 327.511719 308.234375 329.855469 307.136719 C 331.035156 306.566406 333.21875 304.730469 333.21875 304.285156 C 333.21875 304.140625 332.871094 303.632812 332.441406 303.164062 C 331.75 302.390625 331.628906 302.308594 331.242188 302.53125 C 330.34375 303 329.160156 302.714844 328.734375 301.941406 C 328.429688 301.371094 328.144531 297.871094 328.101562 294.0625 C 327.980469 284.855469 327.207031 280.640625 325.046875 277.425781 C 324.128906 276.039062 322.578125 274.574219 320.988281 273.617188 C 318.117188 271.867188 313.183594 271.050781 308.800781 271.621094 Z M 316.425781 290.476562 C 317.097656 290.824219 317.769531 291.25 317.914062 291.433594 C 318.199219 291.78125 318.277344 297.503906 318.035156 298.746094 C 317.6875 300.375 315.773438 302.554688 314.34375 302.941406 C 311.820312 303.652344 309.25 302.695312 308.027344 300.597656 C 306.214844 297.503906 306.785156 293.1875 309.292969 291.066406 C 310.574219 290.007812 311.554688 289.703125 313.449219 289.785156 C 314.894531 289.847656 315.386719 289.96875 316.425781 290.476562 Z M 316.425781 290.476562 " fill-opacity="1" fill-rule="nonzero"/></svg>