<?xml version="1.0" standalone="no"?>
<!DOCTYPE svg PUBLIC "-//W3C//DTD SVG 20010904//EN"
 "http://www.w3.org/TR/2001/REC-SVG-20010904/DTD/svg10.dtd">
<svg version="1.0" xmlns="http://www.w3.org/2000/svg"
 width="1875.000000pt" height="1875.000000pt" viewBox="0 0 1875.000000 1875.000000"
 preserveAspectRatio="xMidYMid meet">

<g transform="translate(0.000000,1875.000000) scale(0.100000,-0.100000)"
fill="#FFFFFF" stroke="none">
<path d="M10099 12390 c-81 -26 -108 -42 -158 -91 -64 -65 -95 -136 -99 -234
-3 -63 1 -92 17 -135 44 -117 139 -197 270 -226 63 -14 86 -15 150 -5 145 22
229 81 283 201 32 70 38 112 28 186 -27 201 -169 325 -369 323 -36 0 -91 -9
-122 -19z"/>
<path d="M2842 12248 l3 -91 45 -15 c99 -33 136 -76 160 -185 15 -69 14 -2217
-1 -2289 -6 -29 -20 -69 -30 -89 -24 -48 -100 -109 -145 -116 -34 -6 -36 -8
-30 -36 3 -16 6 -54 6 -83 l0 -54 1174 0 1174 0 6 31 c3 17 6 47 6 66 0 36 26
204 60 383 36 189 61 352 56 358 -3 3 -49 9 -102 15 -111 12 -105 16 -165 -98
-67 -126 -204 -321 -270 -386 -58 -56 -78 -69 -141 -90 -71 -23 -81 -24 -413
-24 -314 0 -343 1 -378 19 -56 28 -93 69 -119 134 -23 57 -23 58 -23 534 0
435 2 479 17 494 15 15 47 17 300 16 309 -1 328 -4 381 -60 39 -41 96 -148
127 -237 l17 -50 93 -3 93 -3 -9 128 c-11 156 -12 546 -1 706 l7 117 -89 0
-90 0 -21 -57 c-27 -74 -53 -116 -108 -178 -82 -92 -129 -105 -400 -105 -120
0 -222 5 -249 11 -73 19 -73 18 -73 462 0 342 2 391 19 454 20 79 47 119 94
145 28 15 67 17 307 17 288 1 435 -12 467 -41 10 -9 28 -19 41 -23 12 -3 55
-32 95 -64 74 -59 91 -84 218 -319 20 -37 47 -73 60 -80 23 -12 90 -11 175 4
31 6 31 6 22 47 -5 22 -20 102 -34 176 -13 75 -31 172 -40 216 -19 101 -20
103 -34 205 -6 47 -15 95 -20 108 l-10 22 -1115 0 -1116 0 3 -92z"/>
<path d="M6685 11479 c-71 -11 -205 -81 -267 -138 -30 -27 -83 -92 -118 -144
l-65 -95 -5 168 c-6 196 -12 210 -86 210 -24 0 -46 -5 -49 -10 -7 -11 -40 -27
-198 -94 -59 -25 -114 -46 -123 -46 -8 0 -25 -5 -37 -12 -12 -6 -78 -31 -147
-54 l-125 -41 -3 -69 c-3 -85 7 -101 72 -113 54 -10 87 -41 108 -101 9 -26 13
-192 15 -619 3 -489 1 -597 -11 -664 -20 -103 -48 -145 -121 -183 l-56 -29 3
-75 3 -75 520 0 520 0 0 79 0 80 -34 9 c-44 11 -140 72 -148 95 -4 9 -15 28
-24 42 -32 45 -39 156 -39 588 0 419 8 559 36 614 8 15 14 35 14 46 0 41 108
179 162 208 67 35 127 2 169 -94 50 -111 58 -126 83 -154 52 -58 142 -79 249
-59 157 29 259 222 217 411 -51 229 -264 361 -515 319z"/>
<path d="M8250 11473 c-83 -10 -229 -50 -315 -88 -183 -81 -256 -129 -376
-247 -198 -197 -307 -488 -309 -825 0 -196 83 -453 202 -623 52 -73 199 -220
268 -266 103 -70 269 -142 407 -176 128 -32 396 -32 533 0 52 12 104 26 115
31 204 86 257 112 280 137 5 6 35 29 65 52 87 63 182 170 229 257 12 22 25 47
30 55 29 48 60 125 79 195 58 225 57 213 55 385 -1 127 -7 187 -23 260 -23
104 -66 236 -85 260 -7 8 -15 23 -18 32 -16 46 -110 171 -183 244 -95 96 -171
153 -251 191 -32 15 -59 31 -61 36 -2 4 -9 7 -15 7 -7 0 -25 7 -42 16 -16 9
-46 20 -65 24 -19 4 -71 17 -115 29 -65 17 -107 20 -225 19 -80 -1 -161 -3
-180 -5z m225 -244 c58 -16 150 -83 195 -142 22 -29 45 -58 50 -64 22 -27 70
-142 90 -217 46 -172 67 -561 41 -761 -44 -340 -177 -534 -386 -564 -106 -15
-198 9 -285 73 -46 35 -116 120 -146 179 -38 74 -89 240 -114 372 -20 108 -22
141 -17 340 3 152 9 235 19 270 9 28 21 73 28 100 54 214 177 372 322 414 46
13 155 13 203 0z"/>
<path d="M10335 11437 c-49 -23 -92 -44 -95 -47 -3 -3 -39 -18 -80 -34 -41
-15 -97 -37 -125 -48 -27 -11 -73 -26 -101 -33 -28 -7 -67 -17 -85 -23 -19 -6
-53 -16 -76 -22 l-43 -11 0 -80 c0 -78 1 -80 28 -90 51 -19 122 -74 138 -107
13 -29 15 -108 14 -633 0 -392 -4 -618 -11 -652 -6 -29 -27 -78 -46 -109 -28
-47 -43 -61 -89 -82 l-55 -25 3 -73 3 -73 511 -3 511 -2 6 43 c4 24 4 60 0 80
-5 30 -11 37 -49 52 -24 9 -57 32 -74 52 -78 89 -79 101 -80 1082 l0 846 -21
18 c-33 27 -86 20 -184 -26z"/>
<path d="M11875 11474 c-54 -8 -219 -56 -261 -75 -22 -11 -46 -19 -53 -19 -19
0 -116 -56 -181 -103 -163 -120 -290 -281 -361 -455 -56 -138 -70 -185 -90
-296 -32 -184 -26 -315 27 -531 33 -133 117 -301 191 -383 23 -26 42 -50 43
-54 0 -10 182 -168 193 -168 5 0 27 -13 50 -28 23 -16 65 -36 92 -46 28 -10
64 -25 80 -32 80 -35 193 -57 327 -61 150 -6 227 4 353 42 77 24 234 105 274
142 10 10 28 25 39 33 25 19 142 130 142 135 0 2 13 18 30 37 27 29 150 264
150 285 0 22 -73 93 -107 104 l-37 12 -96 -100 c-68 -70 -121 -114 -182 -151
-47 -29 -91 -52 -97 -52 -7 0 -41 -9 -77 -21 -55 -18 -83 -20 -182 -17 -106 4
-124 8 -194 39 -164 72 -282 197 -347 364 -54 140 -91 328 -91 463 0 73 28
252 41 266 5 6 9 23 9 39 0 16 6 43 14 60 82 187 107 221 201 281 61 40 116
56 185 56 57 0 153 -24 172 -44 7 -7 20 -17 29 -22 40 -22 90 -108 125 -211
53 -158 85 -223 134 -271 58 -57 125 -77 233 -69 74 5 82 8 125 44 25 22 59
64 75 94 27 51 28 59 22 139 -7 109 -7 107 -33 163 -57 126 -183 247 -320 309
-37 16 -76 34 -87 40 -10 6 -62 22 -115 36 -78 20 -124 25 -255 27 -88 2 -173
1 -190 -1z"/>
<path d="M13850 11473 c-45 -4 -179 -33 -205 -43 -11 -5 -45 -16 -75 -25 -110
-34 -237 -113 -313 -194 -73 -78 -108 -160 -110 -263 -2 -77 0 -86 28 -130 17
-26 34 -47 38 -48 5 0 21 -9 36 -19 44 -32 138 -54 203 -48 100 9 189 68 204
135 22 97 69 241 90 278 58 99 132 140 237 132 161 -13 249 -127 292 -378 19
-110 39 -319 31 -327 -4 -4 -26 2 -49 14 -64 32 -225 54 -319 43 -241 -28
-440 -97 -573 -197 -112 -85 -176 -166 -230 -290 -43 -100 -59 -194 -52 -302
10 -147 61 -258 181 -392 61 -67 147 -116 284 -161 92 -30 105 -32 257 -32
151 -1 164 1 240 28 44 15 94 35 110 43 62 31 164 105 194 138 17 19 35 35 40
35 5 0 20 -21 33 -47 31 -65 95 -126 170 -165 62 -32 65 -33 203 -33 138 0
141 1 210 34 71 33 166 99 197 136 10 11 24 35 33 53 15 31 15 35 -11 92 -24
55 -29 60 -58 60 -17 0 -40 -7 -50 -15 -31 -23 -89 -19 -114 8 -37 40 -50 137
-56 447 -13 610 -82 935 -235 1115 -90 105 -116 128 -215 183 -22 13 -50 32
-61 42 -24 22 -87 44 -215 76 -77 19 -118 24 -215 22 -66 0 -136 -3 -155 -5z
m269 -1114 c115 -25 174 -77 205 -181 16 -54 18 -82 12 -193 -9 -179 -14 -211
-44 -280 -32 -75 -92 -140 -152 -162 -54 -21 -188 -24 -240 -5 -80 28 -173
151 -199 264 -23 96 -7 303 25 335 8 8 14 21 14 30 0 22 68 101 114 132 53 36
133 62 206 68 8 0 35 -3 59 -8z"/>
<path d="M9180 8225 l0 -134 -36 24 c-112 76 -260 16 -300 -121 -23 -81 -16
-213 15 -278 27 -54 85 -102 137 -112 52 -10 121 4 153 32 36 30 41 30 41 -1
0 -22 4 -25 40 -25 l40 0 0 375 0 375 -45 0 -45 0 0 -135z m-30 -190 l30 -29
0 -132 0 -132 -35 -31 c-29 -25 -45 -31 -81 -31 -96 0 -144 62 -144 184 0 92
16 141 58 178 32 27 40 30 89 26 42 -4 60 -11 83 -33z"/>
<path d="M10294 8305 c-15 -23 -15 -27 0 -50 29 -44 96 -29 96 21 0 53 -67 73
-96 29z"/>
<path d="M6640 7965 l0 -355 50 0 50 0 0 155 0 154 148 3 147 3 3 38 3 37
-150 0 -151 0 0 120 0 120 173 2 172 3 3 38 3 37 -225 0 -226 0 0 -355z"/>
<path d="M9990 8205 l0 -65 -50 0 -50 0 0 -35 0 -35 50 0 50 0 0 -185 c0 -208
8 -243 59 -269 31 -16 87 -21 115 -10 10 4 16 18 16 40 0 33 -1 34 -38 34 -21
0 -43 5 -50 12 -8 8 -12 66 -12 195 l0 183 50 0 50 0 0 35 0 35 -50 0 -50 0 0
65 0 65 -45 0 -45 0 0 -65z"/>
<path d="M7330 8141 c-82 -25 -141 -84 -165 -163 -57 -194 52 -378 225 -378
65 0 113 21 161 69 75 74 98 192 63 312 -35 119 -170 194 -284 160z m130 -88
c51 -30 75 -87 75 -178 0 -131 -50 -199 -145 -199 -94 0 -145 68 -145 194 0
90 23 150 69 180 38 24 108 26 146 3z"/>
<path d="M8477 8136 c-22 -8 -49 -24 -61 -35 -30 -28 -36 -26 -36 9 0 28 -2
30 -40 30 l-40 0 0 -265 0 -265 45 0 45 0 0 193 c0 211 3 222 60 252 49 25
107 20 141 -14 l29 -29 0 -201 0 -201 46 0 45 0 -3 219 c-3 239 -5 245 -69
293 -33 25 -114 32 -162 14z"/>
<path d="M9553 8141 c-71 -18 -143 -85 -143 -132 0 -16 8 -19 44 -19 38 0 45
3 50 25 15 59 140 78 190 29 20 -21 26 -37 26 -70 l0 -44 -73 0 c-98 0 -164
-21 -207 -65 -30 -31 -35 -42 -38 -100 l-4 -65 44 -44 c34 -35 53 -46 91 -51
61 -9 106 0 151 30 45 30 44 30 48 3 3 -20 10 -23 52 -26 47 -3 48 -2 41 20
-4 13 -10 111 -14 218 -6 180 -8 197 -28 226 -13 17 -39 39 -58 49 -42 19
-127 28 -172 16z m167 -335 c0 -62 -2 -66 -34 -91 -85 -65 -196 -35 -196 53 0
67 57 98 183 101 l47 1 0 -64z"/>
<path d="M10680 8141 c-117 -36 -174 -125 -174 -271 0 -68 5 -94 23 -133 97
-198 371 -175 441 37 17 53 9 190 -14 236 -54 106 -173 162 -276 131z m136
-90 c89 -54 102 -253 22 -338 -58 -62 -168 -46 -212 30 -53 91 -42 223 24 289
33 34 43 38 86 38 30 0 61 -7 80 -19z"/>
<path d="M11277 8136 c-22 -8 -49 -24 -61 -35 -30 -28 -36 -26 -36 9 0 28 -2
30 -40 30 l-40 0 0 -265 0 -265 45 0 45 0 0 193 c0 211 3 222 60 252 49 25
107 20 141 -14 l29 -29 0 -201 0 -201 46 0 45 0 -3 219 c-3 239 -5 245 -69
293 -33 25 -114 32 -162 14z"/>
<path d="M7742 7933 c3 -193 5 -211 26 -251 27 -51 83 -81 148 -82 46 0 101
16 125 36 22 19 29 17 29 -6 0 -17 7 -20 45 -20 l45 0 0 265 0 265 -45 0 -45
0 0 -195 0 -195 -29 -32 c-24 -27 -36 -32 -87 -36 -110 -8 -123 23 -124 286
l0 172 -46 0 -46 0 4 -207z"/>
<path d="M10290 7875 l0 -265 45 0 45 0 0 265 0 265 -45 0 -45 0 0 -265z"/>
<path d="M11780 7950 l0 -60 770 0 770 0 0 60 0 60 -770 0 -770 0 0 -60z"/>
<path d="M4990 7885 l0 -65 688 2 687 3 3 63 3 62 -691 0 -690 0 0 -65z"/>
</g>
</svg>



