<svg xmlns="http://www.w3.org/2000/svg" xmlns:xlink="http://www.w3.org/1999/xlink" width="600" zoomAndPan="magnify" viewBox="0 0 450 449.999984" height="600" preserveAspectRatio="xMidYMid meet" version="1.0"><defs><g/></defs><path fill="#000000" d="M 220.617188 124.335938 C 218.886719 124.480469 214.339844 125.050781 213.484375 125.234375 C 207.003906 126.679688 202.335938 128.367188 196.894531 131.28125 C 189.273438 135.332031 181.632812 142.09375 176.742188 149.097656 C 171.359375 156.816406 167.976562 165.1875 166.488281 174.472656 C 165.675781 179.582031 165.734375 187.585938 166.632812 192.839844 C 168.851562 205.773438 175.824219 218.398438 185.503906 226.992188 C 200.972656 240.734375 221.25 245.523438 240.894531 240.0625 C 244.523438 239.046875 246.5625 238.273438 250.167969 236.519531 C 254.304688 234.503906 257.097656 232.835938 260.257812 230.472656 C 269.183594 223.792969 275.96875 214.914062 280.027344 204.609375 C 284.121094 194.226562 285.140625 182.984375 282.960938 172.070312 C 281.308594 163.761719 278.699219 157.550781 273.667969 149.914062 C 268.960938 142.785156 262.640625 136.921875 254.449219 132.136719 C 249.902344 129.46875 247.765625 128.511719 242.933594 126.945312 C 237.25 125.109375 232.785156 124.417969 226.121094 124.316406 C 223.65625 124.296875 221.1875 124.296875 220.617188 124.335938 Z M 233.355469 130.894531 C 238.246094 131.769531 242.40625 133.03125 247.03125 135.109375 C 251.066406 136.921875 256.773438 140.546875 259.054688 142.746094 C 259.238281 142.910156 259.972656 143.558594 260.664062 144.171875 C 263.335938 146.472656 266.878906 150.546875 268.835938 153.539062 C 271.445312 157.488281 274.117188 163.046875 275.238281 166.773438 C 276.417969 170.707031 277.785156 178.300781 277.785156 180.90625 L 277.785156 182.007812 L 275.910156 182.027344 C 274.871094 182.027344 273.605469 182.089844 273.097656 182.171875 C 266.554688 183.023438 261.09375 185 256.28125 188.21875 C 252.878906 190.476562 252.511719 190.804688 246.296875 196.914062 C 239.144531 203.917969 235.921875 205.996094 229.726562 207.644531 C 226.957031 208.378906 222.226562 208.4375 219.191406 207.765625 C 213.28125 206.464844 209.878906 204.386719 208.269531 201.089844 C 207.636719 199.785156 207.574219 199.519531 207.574219 197.726562 C 207.574219 195.976562 207.636719 195.671875 208.226562 194.46875 C 210.367188 190.03125 214.972656 187.199219 221.128906 186.527344 C 222.085938 186.425781 224.652344 186.285156 226.835938 186.222656 C 233.355469 186.019531 236.269531 185.550781 240.609375 184.085938 C 247.335938 181.804688 252.636719 177.382812 255.386719 171.765625 C 256.875 168.710938 257.300781 166.753906 257.300781 162.90625 C 257.300781 160.238281 257.21875 159.464844 256.8125 157.917969 C 254.367188 148.632812 246.214844 142.09375 233.660156 139.367188 C 231.113281 138.816406 230.789062 138.796875 225.40625 138.796875 C 220.046875 138.796875 219.679688 138.816406 217.214844 139.34375 C 213.363281 140.179688 209.0625 141.667969 206.882812 142.886719 C 202.277344 145.476562 200.136719 147.0625 197.386719 149.894531 C 194.0625 153.316406 192.617188 155.65625 191.761719 158.996094 C 190.457031 164.109375 192.535156 169.644531 197.546875 174.433594 C 201.339844 178.035156 205.945312 180.722656 211.855469 182.71875 C 213.261719 183.1875 214.402344 183.617188 214.402344 183.675781 C 214.402344 183.738281 213.609375 183.984375 212.628906 184.246094 C 211.628906 184.492188 210.101562 184.980469 209.207031 185.328125 C 207.269531 186.058594 206.617188 186.039062 203.417969 185.101562 C 199.078125 183.839844 196.632812 182.78125 193.289062 180.703125 C 187.15625 176.855469 182.710938 170.96875 180.878906 164.269531 C 180.042969 161.195312 179.695312 158.425781 179.960938 156.65625 C 180.246094 154.558594 180.753906 153.660156 183.710938 149.996094 C 186.480469 146.554688 189.925781 143.234375 193.308594 140.730469 C 200.789062 135.171875 209.226562 131.789062 218.476562 130.628906 C 221.941406 130.203125 230.21875 130.34375 233.355469 130.894531 Z M 230.910156 144.578125 C 237.144531 145.535156 242.363281 147.695312 246.011719 150.808594 C 249.742188 154.007812 251.800781 158.304688 251.777344 162.90625 C 251.757812 165.492188 251.390625 167 250.167969 169.542969 C 248.601562 172.761719 245.320312 175.855469 241.40625 177.773438 C 238.53125 179.175781 235.945312 179.972656 232.664062 180.4375 C 230.6875 180.722656 225.285156 180.703125 223.164062 180.417969 C 219.742188 179.949219 215.707031 178.75 212.8125 177.28125 C 210.917969 176.324219 210.328125 175.777344 209.613281 174.371094 C 209.082031 173.332031 209 172.984375 209.023438 171.5625 C 209.0625 167.183594 212.121094 163.007812 217.460938 160.035156 C 220.230469 158.464844 222.554688 157.9375 226.527344 157.917969 C 229.402344 157.917969 229.972656 157.976562 231.316406 158.386719 C 235.535156 159.707031 236.964844 161.257812 236.78125 164.25 C 236.574219 167.324219 234.335938 170.054688 230.035156 172.476562 C 228.6875 173.230469 228.421875 173.617188 228.996094 174.046875 C 229.542969 174.472656 232.4375 174.25 234.394531 173.636719 C 238.410156 172.375 242.015625 168.464844 242.484375 164.839844 C 242.832031 162.050781 241.894531 159.140625 240.039062 157.222656 C 237.144531 154.25 231.785156 152.316406 226.445312 152.316406 C 221.984375 152.316406 216.808594 153.886719 212.875 156.429688 C 211.324219 157.429688 208.714844 159.6875 207.59375 160.992188 C 205.027344 164.003906 203.214844 168.445312 203.4375 171.296875 C 203.457031 171.703125 203.417969 172.109375 203.355469 172.191406 C 203.132812 172.394531 199.914062 169.035156 198.953125 167.609375 C 197.179688 164.921875 196.734375 161.296875 197.855469 158.648438 C 198.894531 156.125 202.601562 152.152344 206.3125 149.589844 C 207.617188 148.671875 210.511719 147.226562 212.671875 146.390625 C 214.078125 145.839844 218.070312 144.863281 219.90625 144.597656 C 220.742188 144.476562 221.65625 144.335938 221.941406 144.292969 C 223.371094 144.070312 228.769531 144.234375 230.910156 144.578125 Z M 177.820312 171.457031 C 181.367188 178.503906 186.867188 183.777344 194.675781 187.605469 C 196.164062 188.339844 198.425781 189.277344 199.667969 189.703125 L 201.96875 190.476562 L 200.15625 192.3125 C 195.570312 197.015625 192.472656 202.757812 191.476562 208.398438 C 190.539062 213.773438 191.085938 220.007812 192.902344 224.445312 C 193.167969 225.097656 193.328125 225.625 193.269531 225.625 C 193.105469 225.625 189.84375 222.855469 188.273438 221.371094 C 178.859375 212.511719 172.664062 198.785156 172.09375 185.507812 C 171.910156 181.457031 172.378906 176.449219 173.355469 171.765625 C 173.664062 170.277344 175.027344 165.371094 175.230469 165.066406 C 175.292969 164.960938 175.679688 165.917969 176.089844 167.203125 C 176.496094 168.484375 177.269531 170.398438 177.820312 171.457031 Z M 277.398438 187.527344 C 277.761719 187.546875 277.761719 187.628906 277.152344 191.3125 C 276.480469 195.46875 275.074219 200.519531 273.832031 203.367188 C 273.546875 204.019531 273.21875 204.9375 273.097656 205.40625 C 272.972656 205.894531 272.832031 206.28125 272.75 206.28125 C 272.6875 206.28125 272.097656 205.953125 271.445312 205.546875 C 269.652344 204.46875 268.144531 204 266.066406 203.898438 C 261.460938 203.632812 257.363281 205.609375 251.230469 211.046875 C 245.765625 215.914062 241.445312 218.5 235.800781 220.332031 C 231.929688 221.59375 229.074219 222.023438 224.695312 222.023438 C 220.292969 222.023438 216.867188 221.554688 212.386719 220.332031 C 209.328125 219.496094 208.167969 219.355469 207.453125 219.722656 C 206.902344 220.027344 206.964844 220.535156 207.675781 221.53125 C 209.550781 224.097656 214.054688 226.136719 220.007812 227.070312 C 222.757812 227.519531 228.527344 227.417969 231.625 226.867188 C 240.589844 225.28125 248.089844 221.429688 255.527344 214.570312 C 257.507812 212.777344 260.421875 210.660156 261.765625 210.070312 C 263.84375 209.152344 266.066406 209.007812 267.898438 209.660156 C 268.652344 209.925781 269.632812 210.78125 269.632812 211.167969 C 269.632812 212.207031 264.925781 218.171875 261.644531 221.269531 C 257.425781 225.238281 253.492188 228.007812 248.5 230.492188 C 238.347656 235.5625 228.136719 237.171875 216.644531 235.480469 C 207.308594 234.117188 201.992188 230.636719 198.691406 223.691406 C 197.101562 220.332031 196.550781 217.214844 196.734375 212.796875 C 196.917969 208.644531 197.753906 205.507812 199.566406 202.207031 C 200.441406 200.597656 201.542969 198.949219 201.746094 198.949219 C 201.828125 198.949219 202.03125 199.683594 202.234375 200.578125 C 202.96875 203.796875 205.089844 206.992188 207.859375 209.007812 C 210.957031 211.289062 216.011719 213 221.535156 213.632812 C 226.425781 214.183594 232.582031 213.101562 237.433594 210.800781 C 241.546875 208.867188 244.359375 206.6875 250.269531 200.882812 C 256.589844 194.695312 258.648438 192.984375 261.886719 191.253906 C 266.390625 188.828125 272.503906 187.261719 276.460938 187.484375 C 276.804688 187.503906 277.214844 187.527344 277.398438 187.527344 Z M 277.398438 187.527344 " fill-opacity="1" fill-rule="nonzero"/><path fill="#000000" d="M 246.542969 256.375 C 241.976562 257.535156 240.203125 262.464844 243.160156 265.824219 C 244.789062 267.675781 247.742188 268.453125 250.3125 267.699219 C 251.757812 267.289062 253.410156 265.84375 254.0625 264.417969 C 254.957031 262.523438 254.589844 260.0625 253.207031 258.453125 C 251.800781 256.804688 248.703125 255.847656 246.542969 256.375 Z M 246.542969 256.375 " fill-opacity="1" fill-rule="nonzero"/><path fill="#000000" d="M 122.632812 257.738281 C 122.550781 257.800781 122.488281 258.410156 122.488281 259.0625 L 122.488281 260.246094 L 123.570312 260.734375 C 124.875 261.304688 125.628906 262.136719 126.097656 263.5625 C 126.421875 264.542969 126.464844 266.089844 126.523438 281.523438 C 126.566406 292.519531 126.503906 298.976562 126.382812 300.035156 C 126.097656 302.09375 125.34375 303.539062 124.222656 304.167969 C 123.773438 304.414062 123.304688 304.699219 123.183594 304.820312 C 123 304.984375 122.957031 306.125 123.078125 307.285156 C 123.121094 307.507812 161.820312 307.367188 162.027344 307.164062 C 162.148438 307.039062 162.433594 305.980469 162.636719 304.820312 C 162.863281 303.660156 163.351562 301.011719 163.757812 298.976562 C 164.144531 296.917969 164.472656 294.964844 164.472656 294.660156 C 164.472656 293.945312 163.820312 293.4375 162.902344 293.4375 C 161.71875 293.4375 161.351562 293.722656 160.355469 295.496094 C 158.195312 299.34375 156.460938 301.257812 154.097656 302.4375 C 153.179688 302.886719 152.976562 302.90625 146.230469 302.96875 C 139.546875 303.027344 139.28125 303.007812 138.628906 302.601562 C 137.386719 301.828125 137.367188 301.683594 137.367188 292.214844 L 137.367188 283.664062 L 141.910156 283.664062 C 146.964844 283.664062 147.863281 283.804688 149.328125 284.882812 C 149.921875 285.332031 150.410156 285.945312 150.917969 286.960938 C 151.304688 287.757812 151.632812 288.53125 151.632812 288.671875 C 151.632812 289.386719 153.566406 289.628906 154.140625 289 C 154.445312 288.652344 154.484375 287.835938 154.484375 281.585938 C 154.484375 273.929688 154.527344 274.214844 153.304688 273.96875 C 152.386719 273.785156 151.734375 274.273438 151.285156 275.496094 C 150.652344 277.207031 149.777344 278.246094 148.453125 278.898438 L 147.25 279.488281 L 137.46875 279.488281 L 137.40625 271.097656 L 137.367188 262.730469 L 137.894531 262.300781 C 138.425781 261.894531 138.671875 261.875 144.273438 261.875 C 150.796875 261.875 152 261.996094 153.8125 262.890625 C 155.503906 263.726562 156.726562 265.132812 158.074219 267.820312 C 158.683594 269.019531 159.355469 270.101562 159.558594 270.222656 C 160.414062 270.671875 162.433594 270.304688 162.433594 269.695312 C 162.433594 269.550781 162.25 268.167969 162.027344 266.617188 C 161.089844 260.164062 160.742188 258.289062 160.4375 257.945312 C 160.152344 257.617188 158.988281 257.597656 141.441406 257.597656 C 131.171875 257.597656 122.691406 257.660156 122.632812 257.738281 Z M 122.632812 257.738281 " fill-opacity="1" fill-rule="nonzero"/><path fill="#000000" d="M 175.273438 272.769531 C 173.640625 273.480469 171.300781 274.398438 170.054688 274.804688 C 168.792969 275.210938 167.628906 275.699219 167.425781 275.925781 C 167.203125 276.167969 167.121094 276.554688 167.160156 277.066406 C 167.203125 277.695312 167.34375 277.898438 167.9375 278.207031 C 169.058594 278.816406 169.914062 279.855469 170.257812 281.035156 C 170.542969 281.933594 170.585938 283.539062 170.585938 291.117188 C 170.585938 296.878906 170.503906 300.503906 170.363281 301.175781 C 170.097656 302.457031 169.117188 303.761719 167.976562 304.394531 L 167.101562 304.882812 L 167.160156 306.125 L 167.222656 307.367188 L 175.578125 307.347656 C 180.183594 307.324219 184.179688 307.304688 184.503906 307.304688 C 185.035156 307.285156 185.054688 307.242188 185.054688 306.082031 L 185.054688 304.902344 L 184.097656 304.496094 C 182.8125 303.964844 181.875 303.152344 181.324219 302.113281 C 180.878906 301.296875 180.878906 301.15625 180.878906 292.417969 C 180.878906 284.273438 180.917969 283.480469 181.265625 282.441406 C 181.773438 280.976562 183.078125 278.980469 183.914062 278.410156 C 185.402344 277.390625 187.03125 278.125 187.601562 280.097656 C 188.273438 282.378906 189.558594 283.460938 191.636719 283.460938 C 193.023438 283.460938 193.878906 283.132812 194.898438 282.257812 C 195.917969 281.363281 196.425781 280.445312 196.671875 279.140625 C 197.203125 276.292969 195.773438 273.5625 193.042969 272.21875 C 191.761719 271.585938 191.554688 271.546875 189.539062 271.546875 C 187.867188 271.566406 187.132812 271.648438 186.21875 271.996094 C 184.300781 272.707031 181.222656 275.210938 180.347656 276.757812 C 180.082031 277.1875 180.042969 276.984375 179.960938 274.664062 C 179.898438 273.238281 179.757812 271.972656 179.65625 271.871094 C 179.0625 271.300781 178.207031 271.464844 175.273438 272.769531 Z M 175.273438 272.769531 " fill-opacity="1" fill-rule="nonzero"/><path fill="#000000" d="M 213.058594 271.75 C 209.207031 272.421875 204.925781 274.703125 202.4375 277.410156 C 200.707031 279.285156 198.976562 282.480469 198.261719 285.128906 C 197.628906 287.429688 197.589844 292.417969 198.179688 294.457031 C 200.605469 302.824219 207.960938 308.140625 217.070312 308.121094 C 225.246094 308.121094 231.703125 304.007812 234.90625 296.757812 C 236.289062 293.660156 236.71875 288.792969 235.945312 285.394531 C 235.210938 282.195312 232.96875 278.308594 230.707031 276.25 C 228.484375 274.273438 225.347656 272.644531 222.351562 271.953125 C 220.273438 271.464844 215.257812 271.363281 213.058594 271.75 Z M 218.96875 275.640625 C 219.597656 275.863281 220.394531 276.414062 221.25 277.207031 C 222.308594 278.183594 222.757812 278.816406 223.574219 280.484375 C 224.816406 282.96875 225.304688 284.882812 225.613281 288.183594 C 226.121094 293.703125 224.734375 299.300781 222.25 301.96875 C 220.375 303.984375 217.4375 304.617188 214.726562 303.597656 C 211.691406 302.480469 209.285156 298.46875 208.371094 292.988281 C 207.921875 290.28125 208.0625 285.515625 208.65625 283.234375 C 209.53125 279.914062 210.816406 277.839844 212.855469 276.433594 C 214.789062 275.109375 216.664062 274.867188 218.96875 275.640625 Z M 218.96875 275.640625 " fill-opacity="1" fill-rule="nonzero"/><path fill="#000000" d="M 251.085938 271.730469 C 250.699219 271.894531 249.457031 272.421875 248.335938 272.953125 C 247.214844 273.460938 244.972656 274.316406 243.34375 274.84375 C 241.710938 275.375 240.347656 275.824219 240.324219 275.84375 C 240.285156 275.863281 240.164062 276.230469 240.082031 276.636719 C 239.898438 277.472656 239.957031 277.554688 241.652344 278.917969 C 243.261719 280.199219 243.238281 279.996094 243.300781 290.015625 C 243.34375 295.1875 243.28125 299.527344 243.160156 300.382812 C 242.875 302.457031 242.242188 303.578125 240.9375 304.332031 L 239.878906 304.941406 L 239.917969 306.144531 L 239.980469 307.324219 L 248.335938 307.367188 L 256.691406 307.386719 L 256.875 306.164062 C 256.996094 305.289062 256.996094 304.941406 256.8125 304.882812 C 256.179688 304.679688 254.613281 303.4375 254.226562 302.84375 C 253.367188 301.582031 253.328125 300.75 253.328125 286.125 C 253.328125 275.128906 253.265625 272.054688 253.0625 271.894531 C 252.613281 271.527344 251.820312 271.464844 251.085938 271.730469 Z M 251.085938 271.730469 " fill-opacity="1" fill-rule="nonzero"/><path fill="#000000" d="M 274.910156 271.75 C 271.894531 272.320312 268.328125 274.070312 266.1875 276.027344 C 264.660156 277.410156 262.949219 279.753906 262.011719 281.6875 C 260.847656 284.070312 260.523438 285.089844 260.113281 287.511719 C 259.074219 293.621094 261.949219 300.929688 266.777344 304.453125 C 269.714844 306.59375 271.894531 307.507812 275.214844 308.019531 C 280.984375 308.914062 286.507812 307.082031 290.234375 303.050781 C 292.214844 300.929688 293.761719 298.222656 293.640625 297.125 C 293.597656 296.738281 293.332031 296.472656 292.640625 296.105469 L 291.722656 295.617188 L 289.789062 297.53125 C 287.667969 299.648438 286.40625 300.402344 284.140625 300.890625 C 280.230469 301.707031 276.828125 300.667969 273.933594 297.753906 C 271.203125 295.003906 269.835938 291.523438 269.835938 287.308594 C 269.835938 282.847656 271.324219 278.695312 273.605469 276.839844 C 275.421875 275.335938 277.640625 274.804688 279.636719 275.375 C 281.390625 275.882812 282.371094 277.148438 283.46875 280.242188 C 284.285156 282.605469 284.773438 283.5 285.546875 284.152344 C 286.667969 285.109375 287.382812 285.375 288.789062 285.375 C 294.089844 285.375 294.78125 278.980469 289.910156 275.050781 C 288.320312 273.765625 285.875 272.585938 283.695312 272.054688 C 281.410156 271.484375 277.089844 271.34375 274.910156 271.75 Z M 274.910156 271.75 " fill-opacity="1" fill-rule="nonzero"/><path fill="#000000" d="M 308.800781 271.667969 C 306.113281 272.015625 303.117188 273.074219 301.324219 274.296875 C 299 275.90625 297.960938 277.59375 297.960938 279.792969 C 297.960938 281.484375 298.46875 282.625 299.570312 283.417969 C 301.199219 284.601562 303.238281 284.722656 304.707031 283.765625 C 305.664062 283.132812 306.152344 282.320312 306.824219 280.199219 C 307.519531 278.042969 307.945312 277.226562 308.761719 276.394531 C 309.699219 275.4375 310.941406 275.027344 312.46875 275.171875 C 314.734375 275.375 315.996094 276.78125 316.914062 280.140625 C 317.382812 281.832031 317.933594 285.292969 317.933594 286.515625 L 317.933594 287.347656 L 317.382812 287.042969 C 314.917969 285.800781 310.675781 285.476562 307.234375 286.289062 C 303.542969 287.164062 300.019531 289.425781 298.410156 291.949219 C 296.796875 294.476562 296.269531 298.183594 297.164062 300.828125 C 298.9375 306.144531 304.890625 309.160156 311.410156 308.019531 C 312.46875 307.835938 313.816406 307.46875 314.40625 307.203125 C 315.730469 306.59375 317.648438 305.289062 318.421875 304.453125 C 318.769531 304.109375 319.09375 303.824219 319.195312 303.824219 C 319.277344 303.824219 319.542969 304.191406 319.765625 304.636719 C 320.4375 305.941406 321.316406 306.777344 322.597656 307.367188 C 324.800781 308.34375 327.511719 308.28125 329.855469 307.183594 C 331.035156 306.613281 333.21875 304.78125 333.21875 304.332031 C 333.21875 304.191406 332.871094 303.679688 332.441406 303.210938 C 331.75 302.4375 331.628906 302.355469 331.242188 302.582031 C 330.34375 303.050781 329.160156 302.765625 328.734375 301.992188 C 328.429688 301.421875 328.144531 297.917969 328.101562 294.109375 C 327.980469 284.90625 327.207031 280.691406 325.046875 277.472656 C 324.128906 276.085938 322.578125 274.621094 320.988281 273.664062 C 318.117188 271.914062 313.183594 271.097656 308.800781 271.667969 Z M 316.425781 290.527344 C 317.097656 290.871094 317.769531 291.300781 317.914062 291.484375 C 318.199219 291.828125 318.277344 297.550781 318.035156 298.792969 C 317.6875 300.421875 315.773438 302.601562 314.34375 302.988281 C 311.820312 303.699219 309.25 302.742188 308.027344 300.644531 C 306.214844 297.550781 306.785156 293.234375 309.292969 291.117188 C 310.574219 290.058594 311.554688 289.75 313.449219 289.832031 C 314.894531 289.894531 315.386719 290.015625 316.425781 290.527344 Z M 316.425781 290.527344 " fill-opacity="1" fill-rule="nonzero"/><g fill="#000000" fill-opacity="1"><g transform="translate(176.526411, 352.700538)"><g><path d="M 4.234375 -6.6875 L 4.234375 0 L 1.984375 0 L 1.984375 -17.0625 L 8.28125 -17.0625 C 10.144531 -17.0625 11.601562 -16.582031 12.65625 -15.625 C 13.71875 -14.675781 14.25 -13.414062 14.25 -11.84375 C 14.25 -10.1875 13.726562 -8.910156 12.6875 -8.015625 C 11.65625 -7.128906 10.175781 -6.6875 8.25 -6.6875 Z M 4.234375 -8.515625 L 8.28125 -8.515625 C 9.476562 -8.515625 10.394531 -8.796875 11.03125 -9.359375 C 11.675781 -9.929688 12 -10.753906 12 -11.828125 C 12 -12.835938 11.675781 -13.644531 11.03125 -14.25 C 10.394531 -14.863281 9.519531 -15.1875 8.40625 -15.21875 L 4.234375 -15.21875 Z M 4.234375 -8.515625 "/></g></g><g transform="translate(191.667035, 352.700538)"><g><path d="M 4 0 L 1.828125 0 L 1.828125 -18 L 4 -18 Z M 4 0 "/></g></g><g transform="translate(197.491253, 352.700538)"><g><path d="M 9.46875 0 C 9.34375 -0.25 9.242188 -0.695312 9.171875 -1.34375 C 8.160156 -0.289062 6.957031 0.234375 5.5625 0.234375 C 4.3125 0.234375 3.285156 -0.117188 2.484375 -0.828125 C 1.679688 -1.535156 1.28125 -2.429688 1.28125 -3.515625 C 1.28125 -4.835938 1.78125 -5.863281 2.78125 -6.59375 C 3.789062 -7.320312 5.203125 -7.6875 7.015625 -7.6875 L 9.125 -7.6875 L 9.125 -8.6875 C 9.125 -9.445312 8.894531 -10.050781 8.4375 -10.5 C 7.988281 -10.945312 7.328125 -11.171875 6.453125 -11.171875 C 5.671875 -11.171875 5.019531 -10.972656 4.5 -10.578125 C 3.976562 -10.191406 3.71875 -9.722656 3.71875 -9.171875 L 1.53125 -9.171875 C 1.53125 -9.796875 1.753906 -10.40625 2.203125 -11 C 2.660156 -11.59375 3.269531 -12.0625 4.03125 -12.40625 C 4.800781 -12.75 5.648438 -12.921875 6.578125 -12.921875 C 8.035156 -12.921875 9.175781 -12.550781 10 -11.8125 C 10.832031 -11.082031 11.265625 -10.078125 11.296875 -8.796875 L 11.296875 -2.96875 C 11.296875 -1.800781 11.445312 -0.875 11.75 -0.1875 L 11.75 0 Z M 5.875 -1.65625 C 6.550781 -1.65625 7.191406 -1.828125 7.796875 -2.171875 C 8.410156 -2.523438 8.851562 -2.984375 9.125 -3.546875 L 9.125 -6.15625 L 7.4375 -6.15625 C 4.78125 -6.15625 3.453125 -5.378906 3.453125 -3.828125 C 3.453125 -3.140625 3.675781 -2.601562 4.125 -2.21875 C 4.582031 -1.84375 5.164062 -1.65625 5.875 -1.65625 Z M 5.875 -1.65625 "/></g></g><g transform="translate(210.54594, 352.700538)"><g><path d="M 4.578125 -15.75 L 4.578125 -12.6875 L 6.953125 -12.6875 L 6.953125 -11 L 4.578125 -11 L 4.578125 -3.140625 C 4.578125 -2.628906 4.679688 -2.25 4.890625 -2 C 5.109375 -1.75 5.472656 -1.625 5.984375 -1.625 C 6.234375 -1.625 6.578125 -1.671875 7.015625 -1.765625 L 7.015625 0 C 6.441406 0.15625 5.882812 0.234375 5.34375 0.234375 C 4.375 0.234375 3.644531 -0.0546875 3.15625 -0.640625 C 2.664062 -1.234375 2.421875 -2.066406 2.421875 -3.140625 L 2.421875 -11 L 0.109375 -11 L 0.109375 -12.6875 L 2.421875 -12.6875 L 2.421875 -15.75 Z M 4.578125 -15.75 "/></g></g><g transform="translate(218.385783, 352.700538)"><g><path d="M 2.703125 0 L 2.703125 -11 L 0.703125 -11 L 0.703125 -12.6875 L 2.703125 -12.6875 L 2.703125 -13.984375 C 2.703125 -15.335938 3.066406 -16.382812 3.796875 -17.125 C 4.523438 -17.875 5.550781 -18.25 6.875 -18.25 C 7.375 -18.25 7.875 -18.179688 8.375 -18.046875 L 8.25 -16.296875 C 7.882812 -16.359375 7.492188 -16.390625 7.078125 -16.390625 C 6.378906 -16.390625 5.835938 -16.1875 5.453125 -15.78125 C 5.066406 -15.375 4.875 -14.785156 4.875 -14.015625 L 4.875 -12.6875 L 7.578125 -12.6875 L 7.578125 -11 L 4.875 -11 L 4.875 0 Z M 2.703125 0 "/></g></g><g transform="translate(226.717814, 352.700538)"><g><path d="M 1.0625 -6.453125 C 1.0625 -7.703125 1.304688 -8.820312 1.796875 -9.8125 C 2.285156 -10.800781 2.960938 -11.566406 3.828125 -12.109375 C 4.703125 -12.648438 5.703125 -12.921875 6.828125 -12.921875 C 8.546875 -12.921875 9.9375 -12.320312 11 -11.125 C 12.070312 -9.925781 12.609375 -8.335938 12.609375 -6.359375 L 12.609375 -6.203125 C 12.609375 -4.960938 12.367188 -3.851562 11.890625 -2.875 C 11.421875 -1.894531 10.75 -1.128906 9.875 -0.578125 C 9 -0.0351562 7.988281 0.234375 6.84375 0.234375 C 5.125 0.234375 3.726562 -0.363281 2.65625 -1.5625 C 1.59375 -2.757812 1.0625 -4.34375 1.0625 -6.3125 Z M 3.25 -6.203125 C 3.25 -4.796875 3.570312 -3.664062 4.21875 -2.8125 C 4.875 -1.957031 5.75 -1.53125 6.84375 -1.53125 C 7.945312 -1.53125 8.820312 -1.960938 9.46875 -2.828125 C 10.113281 -3.691406 10.4375 -4.898438 10.4375 -6.453125 C 10.4375 -7.847656 10.109375 -8.976562 9.453125 -9.84375 C 8.796875 -10.707031 7.921875 -11.140625 6.828125 -11.140625 C 5.753906 -11.140625 4.890625 -10.710938 4.234375 -9.859375 C 3.578125 -9.003906 3.25 -7.785156 3.25 -6.203125 Z M 3.25 -6.203125 "/></g></g><g transform="translate(240.405313, 352.700538)"><g><path d="M 7.765625 -10.734375 C 7.441406 -10.785156 7.085938 -10.8125 6.703125 -10.8125 C 5.285156 -10.8125 4.320312 -10.207031 3.8125 -9 L 3.8125 0 L 1.640625 0 L 1.640625 -12.6875 L 3.75 -12.6875 L 3.78125 -11.21875 C 4.5 -12.351562 5.507812 -12.921875 6.8125 -12.921875 C 7.226562 -12.921875 7.546875 -12.863281 7.765625 -12.75 Z M 7.765625 -10.734375 "/></g></g><g transform="translate(248.526406, 352.700538)"><g><path d="M 3.6875 -12.6875 L 3.734375 -11.28125 C 4.671875 -12.375 5.925781 -12.921875 7.5 -12.921875 C 9.269531 -12.921875 10.476562 -12.238281 11.125 -10.875 C 11.539062 -11.488281 12.085938 -11.984375 12.765625 -12.359375 C 13.441406 -12.734375 14.242188 -12.921875 15.171875 -12.921875 C 17.953125 -12.921875 19.363281 -11.445312 19.40625 -8.5 L 19.40625 0 L 17.234375 0 L 17.234375 -8.375 C 17.234375 -9.28125 17.023438 -9.957031 16.609375 -10.40625 C 16.203125 -10.851562 15.507812 -11.078125 14.53125 -11.078125 C 13.726562 -11.078125 13.0625 -10.835938 12.53125 -10.359375 C 12 -9.878906 11.691406 -9.234375 11.609375 -8.421875 L 11.609375 0 L 9.421875 0 L 9.421875 -8.3125 C 9.421875 -10.15625 8.519531 -11.078125 6.71875 -11.078125 C 5.289062 -11.078125 4.316406 -10.472656 3.796875 -9.265625 L 3.796875 0 L 1.625 0 L 1.625 -12.6875 Z M 3.6875 -12.6875 "/></g></g></g><path stroke-linecap="butt" transform="matrix(0.75, 0, 0, 0.75, 287.976811, 342.950539)" fill="none" stroke-linejoin="miter" d="M -0.00033176 1.99824 L 49.353839 1.99824 " stroke="#000000" stroke-width="4" stroke-opacity="1" stroke-miterlimit="4"/><path stroke-linecap="butt" transform="matrix(0.75, 0, 0, 0.75, 125.009106, 344.450539)" fill="none" stroke-linejoin="miter" d="M -0.00172415 1.99824 L 44.159738 1.99824 " stroke="#000000" stroke-width="4" stroke-opacity="1" stroke-miterlimit="4"/></svg>