<svg xmlns="http://www.w3.org/2000/svg" xmlns:xlink="http://www.w3.org/1999/xlink" width="600" zoomAndPan="magnify" viewBox="0 0 450 449.999984" height="600" preserveAspectRatio="xMidYMid meet" version="1.0"><defs><g/></defs><path fill="#000000" d="M 220.617188 105.425781 C 218.886719 105.566406 214.339844 106.136719 213.484375 106.320312 C 207.003906 107.765625 202.335938 109.457031 196.894531 112.367188 C 189.273438 116.421875 181.632812 123.179688 176.742188 130.1875 C 171.359375 137.902344 167.976562 146.273438 166.488281 155.558594 C 165.675781 160.671875 165.734375 168.671875 166.632812 173.925781 C 168.851562 186.859375 175.824219 199.484375 185.503906 208.078125 C 200.972656 221.824219 221.25 226.609375 240.894531 221.152344 C 244.523438 220.132812 246.5625 219.359375 250.167969 217.609375 C 254.304688 215.59375 257.097656 213.921875 260.257812 211.558594 C 269.183594 204.878906 275.96875 196 280.027344 185.699219 C 284.121094 175.3125 285.140625 164.070312 282.960938 153.15625 C 281.308594 144.847656 278.699219 138.636719 273.667969 131 C 268.960938 123.875 262.640625 118.007812 254.449219 113.222656 C 249.902344 110.554688 247.765625 109.597656 242.933594 108.03125 C 237.25 106.199219 232.785156 105.503906 226.121094 105.402344 C 223.65625 105.382812 221.1875 105.382812 220.617188 105.425781 Z M 233.355469 111.980469 C 238.246094 112.855469 242.40625 114.121094 247.03125 116.195312 C 251.066406 118.007812 256.773438 121.632812 259.054688 123.832031 C 259.238281 123.996094 259.972656 124.648438 260.664062 125.257812 C 263.335938 127.558594 266.878906 131.632812 268.835938 134.625 C 271.445312 138.578125 274.117188 144.136719 275.238281 147.863281 C 276.417969 151.792969 277.785156 159.386719 277.785156 161.996094 L 277.785156 163.09375 L 275.910156 163.113281 C 274.871094 163.113281 273.605469 163.175781 273.097656 163.257812 C 266.554688 164.113281 261.09375 166.085938 256.28125 169.304688 C 252.878906 171.566406 252.511719 171.890625 246.296875 178 C 239.144531 185.003906 235.921875 187.082031 229.726562 188.730469 C 226.957031 189.464844 222.226562 189.527344 219.191406 188.855469 C 213.28125 187.550781 209.878906 185.472656 208.269531 182.175781 C 207.636719 180.871094 207.574219 180.605469 207.574219 178.816406 C 207.574219 177.0625 207.636719 176.757812 208.226562 175.558594 C 210.367188 171.117188 214.972656 168.285156 221.128906 167.613281 C 222.085938 167.511719 224.652344 167.371094 226.835938 167.308594 C 233.355469 167.105469 236.269531 166.636719 240.609375 165.171875 C 247.335938 162.890625 252.636719 158.472656 255.386719 152.851562 C 256.875 149.796875 257.300781 147.839844 257.300781 143.992188 C 257.300781 141.324219 257.21875 140.550781 256.8125 139.003906 C 254.367188 129.71875 246.214844 123.179688 233.660156 120.453125 C 231.113281 119.902344 230.789062 119.882812 225.40625 119.882812 C 220.046875 119.882812 219.679688 119.902344 217.214844 120.433594 C 213.363281 121.265625 209.0625 122.753906 206.882812 123.976562 C 202.277344 126.5625 200.136719 128.148438 197.386719 130.980469 C 194.0625 134.402344 192.617188 136.742188 191.761719 140.082031 C 190.457031 145.195312 192.535156 150.734375 197.546875 155.519531 C 201.339844 159.125 205.945312 161.8125 211.855469 163.808594 C 213.261719 164.273438 214.402344 164.703125 214.402344 164.765625 C 214.402344 164.824219 213.609375 165.070312 212.628906 165.335938 C 211.628906 165.578125 210.101562 166.066406 209.207031 166.414062 C 207.269531 167.148438 206.617188 167.125 203.417969 166.1875 C 199.078125 164.925781 196.632812 163.867188 193.289062 161.789062 C 187.15625 157.941406 182.710938 152.058594 180.878906 145.355469 C 180.042969 142.28125 179.695312 139.511719 179.960938 137.742188 C 180.246094 135.644531 180.753906 134.746094 183.710938 131.082031 C 186.480469 127.640625 189.925781 124.320312 193.308594 121.816406 C 200.789062 116.257812 209.226562 112.878906 218.476562 111.714844 C 221.941406 111.289062 230.21875 111.429688 233.355469 111.980469 Z M 230.910156 125.664062 C 237.144531 126.621094 242.363281 128.78125 246.011719 131.898438 C 249.742188 135.09375 251.800781 139.390625 251.777344 143.992188 C 251.757812 146.578125 251.390625 148.085938 250.167969 150.632812 C 248.601562 153.847656 245.320312 156.945312 241.40625 158.859375 C 238.53125 160.261719 235.945312 161.058594 232.664062 161.527344 C 230.6875 161.8125 225.285156 161.789062 223.164062 161.503906 C 219.742188 161.039062 215.707031 159.835938 212.8125 158.371094 C 210.917969 157.414062 210.328125 156.863281 209.613281 155.457031 C 209.082031 154.417969 209 154.074219 209.023438 152.648438 C 209.0625 148.269531 212.121094 144.09375 217.460938 141.121094 C 220.230469 139.554688 222.554688 139.023438 226.527344 139.003906 C 229.402344 139.003906 229.972656 139.066406 231.316406 139.472656 C 235.535156 140.796875 236.964844 142.34375 236.78125 145.335938 C 236.574219 148.410156 234.335938 151.140625 230.035156 153.5625 C 228.6875 154.316406 228.421875 154.703125 228.996094 155.132812 C 229.542969 155.558594 232.4375 155.335938 234.394531 154.726562 C 238.410156 153.460938 242.015625 149.550781 242.484375 145.925781 C 242.832031 143.136719 241.894531 140.226562 240.039062 138.3125 C 237.144531 135.339844 231.785156 133.402344 226.445312 133.402344 C 221.984375 133.402344 216.808594 134.972656 212.875 137.515625 C 211.324219 138.515625 208.714844 140.777344 207.59375 142.078125 C 205.027344 145.09375 203.214844 149.53125 203.4375 152.382812 C 203.457031 152.789062 203.417969 153.199219 203.355469 153.277344 C 203.132812 153.484375 199.914062 150.121094 198.953125 148.695312 C 197.179688 146.007812 196.734375 142.382812 197.855469 139.738281 C 198.894531 137.210938 202.601562 133.242188 206.3125 130.675781 C 207.617188 129.757812 210.511719 128.3125 212.671875 127.476562 C 214.078125 126.929688 218.070312 125.949219 219.90625 125.6875 C 220.742188 125.5625 221.65625 125.421875 221.941406 125.378906 C 223.371094 125.15625 228.769531 125.320312 230.910156 125.664062 Z M 177.820312 152.546875 C 181.367188 159.589844 186.867188 164.867188 194.675781 168.695312 C 196.164062 169.425781 198.425781 170.363281 199.667969 170.792969 L 201.96875 171.566406 L 200.15625 173.398438 C 195.570312 178.101562 192.472656 183.84375 191.476562 189.484375 C 190.539062 194.863281 191.085938 201.09375 192.902344 205.53125 C 193.167969 206.183594 193.328125 206.714844 193.269531 206.714844 C 193.105469 206.714844 189.84375 203.945312 188.273438 202.457031 C 178.859375 193.597656 172.664062 179.875 172.09375 166.597656 C 171.910156 162.542969 172.378906 157.535156 173.355469 152.851562 C 173.664062 151.363281 175.027344 146.457031 175.230469 146.152344 C 175.292969 146.050781 175.679688 147.007812 176.089844 148.289062 C 176.496094 149.574219 177.269531 151.488281 177.820312 152.546875 Z M 277.398438 168.613281 C 277.761719 168.632812 277.761719 168.714844 277.152344 172.398438 C 276.480469 176.554688 275.074219 181.605469 273.832031 184.457031 C 273.546875 185.105469 273.21875 186.023438 273.097656 186.492188 C 272.972656 186.980469 272.832031 187.367188 272.75 187.367188 C 272.6875 187.367188 272.097656 187.042969 271.445312 186.632812 C 269.652344 185.554688 268.144531 185.085938 266.066406 184.984375 C 261.460938 184.71875 257.363281 186.695312 251.230469 192.132812 C 245.765625 197 241.445312 199.585938 235.800781 201.417969 C 231.929688 202.679688 229.074219 203.109375 224.695312 203.109375 C 220.292969 203.109375 216.867188 202.640625 212.386719 201.417969 C 209.328125 200.582031 208.167969 200.441406 207.453125 200.808594 C 206.902344 201.113281 206.964844 201.621094 207.675781 202.621094 C 209.550781 205.1875 214.054688 207.222656 220.007812 208.160156 C 222.757812 208.605469 228.527344 208.503906 231.625 207.957031 C 240.589844 206.367188 248.089844 202.519531 255.527344 195.65625 C 257.507812 193.863281 260.421875 191.746094 261.765625 191.15625 C 263.84375 190.238281 266.066406 190.097656 267.898438 190.75 C 268.652344 191.011719 269.632812 191.867188 269.632812 192.253906 C 269.632812 193.292969 264.925781 199.261719 261.644531 202.355469 C 257.425781 206.328125 253.492188 209.097656 248.5 211.582031 C 238.347656 216.652344 228.136719 218.257812 216.644531 216.570312 C 207.308594 215.203125 201.992188 211.722656 198.691406 204.777344 C 197.101562 201.417969 196.550781 198.304688 196.734375 193.882812 C 196.917969 189.730469 197.753906 186.59375 199.566406 183.296875 C 200.441406 181.6875 201.542969 180.035156 201.746094 180.035156 C 201.828125 180.035156 202.03125 180.769531 202.234375 181.664062 C 202.96875 184.882812 205.089844 188.082031 207.859375 190.097656 C 210.957031 192.378906 216.011719 194.085938 221.535156 194.71875 C 226.425781 195.269531 232.582031 194.191406 237.433594 191.886719 C 241.546875 189.953125 244.359375 187.773438 250.269531 181.972656 C 256.589844 175.78125 258.648438 174.070312 261.886719 172.339844 C 266.390625 169.914062 272.503906 168.347656 276.460938 168.570312 C 276.804688 168.59375 277.214844 168.613281 277.398438 168.613281 Z M 277.398438 168.613281 " fill-opacity="1" fill-rule="nonzero"/><path fill="#000000" d="M 246.542969 237.460938 C 241.976562 238.625 240.203125 243.550781 243.160156 246.910156 C 244.789062 248.765625 247.742188 249.539062 250.3125 248.785156 C 251.757812 248.378906 253.410156 246.929688 254.0625 245.507812 C 254.957031 243.613281 254.589844 241.148438 253.207031 239.539062 C 251.800781 237.890625 248.703125 236.933594 246.542969 237.460938 Z M 246.542969 237.460938 " fill-opacity="1" fill-rule="nonzero"/><path fill="#000000" d="M 122.632812 238.828125 C 122.550781 238.886719 122.488281 239.5 122.488281 240.152344 L 122.488281 241.332031 L 123.570312 241.820312 C 124.875 242.390625 125.628906 243.226562 126.097656 244.652344 C 126.421875 245.628906 126.464844 247.175781 126.523438 262.613281 C 126.566406 273.609375 126.503906 280.0625 126.382812 281.121094 C 126.097656 283.179688 125.34375 284.625 124.222656 285.257812 C 123.773438 285.5 123.304688 285.785156 123.183594 285.90625 C 123 286.070312 122.957031 287.210938 123.078125 288.371094 C 123.121094 288.597656 161.820312 288.453125 162.027344 288.25 C 162.148438 288.128906 162.433594 287.070312 162.636719 285.90625 C 162.863281 284.746094 163.351562 282.101562 163.757812 280.0625 C 164.144531 278.007812 164.472656 276.050781 164.472656 275.746094 C 164.472656 275.035156 163.820312 274.523438 162.902344 274.523438 C 161.71875 274.523438 161.351562 274.808594 160.355469 276.582031 C 158.195312 280.429688 156.460938 282.34375 154.097656 283.523438 C 153.179688 283.972656 152.976562 283.992188 146.230469 284.054688 C 139.546875 284.117188 139.28125 284.09375 138.628906 283.6875 C 137.386719 282.914062 137.367188 282.773438 137.367188 273.300781 L 137.367188 264.75 L 141.910156 264.75 C 146.964844 264.75 147.863281 264.890625 149.328125 265.972656 C 149.921875 266.417969 150.410156 267.03125 150.917969 268.046875 C 151.304688 268.84375 151.632812 269.617188 151.632812 269.757812 C 151.632812 270.472656 153.566406 270.714844 154.140625 270.085938 C 154.445312 269.738281 154.484375 268.925781 154.484375 262.671875 C 154.484375 255.015625 154.527344 255.300781 153.304688 255.058594 C 152.386719 254.875 151.734375 255.363281 151.285156 256.585938 C 150.652344 258.292969 149.777344 259.332031 148.453125 259.984375 L 147.25 260.574219 L 137.46875 260.574219 L 137.40625 252.183594 L 137.367188 243.816406 L 137.894531 243.386719 C 138.425781 242.980469 138.671875 242.960938 144.273438 242.960938 C 150.796875 242.960938 152 243.082031 153.8125 243.980469 C 155.503906 244.8125 156.726562 246.21875 158.074219 248.90625 C 158.683594 250.109375 159.355469 251.1875 159.558594 251.308594 C 160.414062 251.757812 162.433594 251.390625 162.433594 250.78125 C 162.433594 250.636719 162.25 249.253906 162.027344 247.707031 C 161.089844 241.25 160.742188 239.375 160.4375 239.03125 C 160.152344 238.703125 158.988281 238.683594 141.441406 238.683594 C 131.171875 238.683594 122.691406 238.746094 122.632812 238.828125 Z M 122.632812 238.828125 " fill-opacity="1" fill-rule="nonzero"/><path fill="#000000" d="M 175.273438 253.855469 C 173.640625 254.566406 171.300781 255.484375 170.054688 255.890625 C 168.792969 256.300781 167.628906 256.789062 167.425781 257.011719 C 167.203125 257.257812 167.121094 257.644531 167.160156 258.152344 C 167.203125 258.785156 167.34375 258.988281 167.9375 259.292969 C 169.058594 259.902344 169.914062 260.941406 170.257812 262.121094 C 170.542969 263.019531 170.585938 264.628906 170.585938 272.203125 C 170.585938 277.964844 170.503906 281.589844 170.363281 282.261719 C 170.097656 283.546875 169.117188 284.847656 167.976562 285.480469 L 167.101562 285.96875 L 167.160156 287.210938 L 167.222656 288.453125 L 175.578125 288.433594 C 180.183594 288.414062 184.179688 288.390625 184.503906 288.390625 C 185.035156 288.371094 185.054688 288.332031 185.054688 287.171875 L 185.054688 285.988281 L 184.097656 285.582031 C 182.8125 285.050781 181.875 284.238281 181.324219 283.199219 C 180.878906 282.386719 180.878906 282.242188 180.878906 273.507812 C 180.878906 265.359375 180.917969 264.566406 181.265625 263.527344 C 181.773438 262.0625 183.078125 260.066406 183.914062 259.496094 C 185.402344 258.476562 187.03125 259.210938 187.601562 261.1875 C 188.273438 263.46875 189.558594 264.546875 191.636719 264.546875 C 193.023438 264.546875 193.878906 264.21875 194.898438 263.34375 C 195.917969 262.449219 196.425781 261.53125 196.671875 260.230469 C 197.203125 257.378906 195.773438 254.648438 193.042969 253.304688 C 191.761719 252.675781 191.554688 252.632812 189.539062 252.632812 C 187.867188 252.652344 187.132812 252.734375 186.21875 253.082031 C 184.300781 253.792969 181.222656 256.300781 180.347656 257.847656 C 180.082031 258.273438 180.042969 258.070312 179.960938 255.75 C 179.898438 254.324219 179.757812 253.0625 179.65625 252.960938 C 179.0625 252.390625 178.207031 252.550781 175.273438 253.855469 Z M 175.273438 253.855469 " fill-opacity="1" fill-rule="nonzero"/><path fill="#000000" d="M 213.058594 252.835938 C 209.207031 253.507812 204.925781 255.789062 202.4375 258.5 C 200.707031 260.371094 198.976562 263.570312 198.261719 266.214844 C 197.628906 268.515625 197.589844 273.507812 198.179688 275.542969 C 200.605469 283.914062 207.960938 289.226562 217.070312 289.207031 C 225.246094 289.207031 231.703125 285.09375 234.90625 277.84375 C 236.289062 274.75 236.71875 269.882812 235.945312 266.480469 C 235.210938 263.285156 232.96875 259.394531 230.707031 257.335938 C 228.484375 255.363281 225.347656 253.734375 222.351562 253.039062 C 220.273438 252.550781 215.257812 252.449219 213.058594 252.835938 Z M 218.96875 256.726562 C 219.597656 256.949219 220.394531 257.5 221.25 258.292969 C 222.308594 259.273438 222.757812 259.902344 223.574219 261.574219 C 224.816406 264.058594 225.304688 265.972656 225.613281 269.269531 C 226.121094 274.789062 224.734375 280.390625 222.25 283.058594 C 220.375 285.074219 217.4375 285.703125 214.726562 284.6875 C 211.691406 283.566406 209.285156 279.554688 208.371094 274.078125 C 207.921875 271.367188 208.0625 266.601562 208.65625 264.320312 C 209.53125 261.003906 210.816406 258.925781 212.855469 257.519531 C 214.789062 256.195312 216.664062 255.953125 218.96875 256.726562 Z M 218.96875 256.726562 " fill-opacity="1" fill-rule="nonzero"/><path fill="#000000" d="M 251.085938 252.816406 C 250.699219 252.980469 249.457031 253.507812 248.335938 254.039062 C 247.214844 254.546875 244.972656 255.402344 243.34375 255.933594 C 241.710938 256.460938 240.347656 256.910156 240.324219 256.929688 C 240.285156 256.949219 240.164062 257.316406 240.082031 257.722656 C 239.898438 258.558594 239.957031 258.640625 241.652344 260.003906 C 243.261719 261.289062 243.238281 261.085938 243.300781 271.101562 C 243.34375 276.277344 243.28125 280.613281 243.160156 281.46875 C 242.875 283.546875 242.242188 284.664062 240.9375 285.417969 L 239.878906 286.03125 L 239.917969 287.230469 L 239.980469 288.414062 L 248.335938 288.453125 L 256.691406 288.472656 L 256.875 287.25 C 256.996094 286.375 256.996094 286.03125 256.8125 285.96875 C 256.179688 285.765625 254.613281 284.523438 254.226562 283.933594 C 253.367188 282.671875 253.328125 281.835938 253.328125 267.214844 C 253.328125 256.21875 253.265625 253.140625 253.0625 252.980469 C 252.613281 252.613281 251.820312 252.550781 251.085938 252.816406 Z M 251.085938 252.816406 " fill-opacity="1" fill-rule="nonzero"/><path fill="#000000" d="M 274.910156 252.835938 C 271.894531 253.40625 268.328125 255.160156 266.1875 257.113281 C 264.660156 258.5 262.949219 260.839844 262.011719 262.773438 C 260.847656 265.15625 260.523438 266.175781 260.113281 268.597656 C 259.074219 274.707031 261.949219 282.019531 266.777344 285.542969 C 269.714844 287.679688 271.894531 288.597656 275.214844 289.105469 C 280.984375 290 286.507812 288.167969 290.234375 284.136719 C 292.214844 282.019531 293.761719 279.308594 293.640625 278.210938 C 293.597656 277.824219 293.332031 277.558594 292.640625 277.191406 L 291.722656 276.703125 L 289.789062 278.617188 C 287.667969 280.734375 286.40625 281.488281 284.140625 281.976562 C 280.230469 282.792969 276.828125 281.753906 273.933594 278.839844 C 271.203125 276.09375 269.835938 272.609375 269.835938 268.394531 C 269.835938 263.933594 271.324219 259.78125 273.605469 257.929688 C 275.421875 256.421875 277.640625 255.890625 279.636719 256.460938 C 281.390625 256.972656 282.371094 258.234375 283.46875 261.328125 C 284.285156 263.691406 284.773438 264.585938 285.546875 265.238281 C 286.667969 266.195312 287.382812 266.460938 288.789062 266.460938 C 294.089844 266.460938 294.78125 260.066406 289.910156 256.136719 C 288.320312 254.851562 285.875 253.671875 283.695312 253.140625 C 281.410156 252.574219 277.089844 252.429688 274.910156 252.835938 Z M 274.910156 252.835938 " fill-opacity="1" fill-rule="nonzero"/><path fill="#000000" d="M 308.800781 252.753906 C 306.113281 253.101562 303.117188 254.160156 301.324219 255.382812 C 299 256.992188 297.960938 258.679688 297.960938 260.878906 C 297.960938 262.570312 298.46875 263.710938 299.570312 264.503906 C 301.199219 265.6875 303.238281 265.808594 304.707031 264.851562 C 305.664062 264.21875 306.152344 263.40625 306.824219 261.289062 C 307.519531 259.128906 307.945312 258.316406 308.761719 257.480469 C 309.699219 256.523438 310.941406 256.117188 312.46875 256.257812 C 314.734375 256.460938 315.996094 257.867188 316.914062 261.226562 C 317.382812 262.917969 317.933594 266.378906 317.933594 267.601562 L 317.933594 268.4375 L 317.382812 268.128906 C 314.917969 266.886719 310.675781 266.5625 307.234375 267.375 C 303.542969 268.253906 300.019531 270.511719 298.410156 273.039062 C 296.796875 275.5625 296.269531 279.269531 297.164062 281.917969 C 298.9375 287.230469 304.890625 290.246094 311.410156 289.105469 C 312.46875 288.921875 313.816406 288.554688 314.40625 288.289062 C 315.730469 287.679688 317.648438 286.375 318.421875 285.542969 C 318.769531 285.195312 319.09375 284.910156 319.195312 284.910156 C 319.277344 284.910156 319.542969 285.277344 319.765625 285.722656 C 320.4375 287.027344 321.316406 287.863281 322.597656 288.453125 C 324.800781 289.429688 327.511719 289.371094 329.855469 288.269531 C 331.035156 287.699219 333.21875 285.867188 333.21875 285.417969 C 333.21875 285.277344 332.871094 284.765625 332.441406 284.300781 C 331.75 283.523438 331.628906 283.445312 331.242188 283.667969 C 330.34375 284.136719 329.160156 283.851562 328.734375 283.078125 C 328.429688 282.507812 328.144531 279.003906 328.101562 275.195312 C 327.980469 265.992188 327.207031 261.777344 325.046875 258.558594 C 324.128906 257.175781 322.578125 255.707031 320.988281 254.75 C 318.117188 253 313.183594 252.183594 308.800781 252.753906 Z M 316.425781 271.613281 C 317.097656 271.957031 317.769531 272.386719 317.914062 272.570312 C 318.199219 272.914062 318.277344 278.636719 318.035156 279.878906 C 317.6875 281.507812 315.773438 283.6875 314.34375 284.074219 C 311.820312 284.789062 309.25 283.832031 308.027344 281.734375 C 306.214844 278.636719 306.785156 274.320312 309.292969 272.203125 C 310.574219 271.144531 311.554688 270.839844 313.449219 270.921875 C 314.894531 270.980469 315.386719 271.101562 316.425781 271.613281 Z M 316.425781 271.613281 " fill-opacity="1" fill-rule="nonzero"/><g fill="#000000" fill-opacity="1"><g transform="translate(167.142783, 324.769194)"><g><path d="M 11.390625 -7.53125 L 4.234375 -7.53125 L 4.234375 0 L 1.984375 0 L 1.984375 -17.0625 L 12.546875 -17.0625 L 12.546875 -15.21875 L 4.234375 -15.21875 L 4.234375 -9.375 L 11.390625 -9.375 Z M 11.390625 -7.53125 "/></g></g></g><g fill="#000000" fill-opacity="1"><g transform="translate(180.162313, 324.769194)"><g><path d="M 1.0625 -6.453125 C 1.0625 -7.703125 1.304688 -8.820312 1.796875 -9.8125 C 2.285156 -10.800781 2.960938 -11.566406 3.828125 -12.109375 C 4.703125 -12.648438 5.703125 -12.921875 6.828125 -12.921875 C 8.546875 -12.921875 9.9375 -12.320312 11 -11.125 C 12.070312 -9.925781 12.609375 -8.335938 12.609375 -6.359375 L 12.609375 -6.203125 C 12.609375 -4.960938 12.367188 -3.851562 11.890625 -2.875 C 11.421875 -1.894531 10.75 -1.128906 9.875 -0.578125 C 9 -0.0351562 7.988281 0.234375 6.84375 0.234375 C 5.125 0.234375 3.726562 -0.363281 2.65625 -1.5625 C 1.59375 -2.757812 1.0625 -4.34375 1.0625 -6.3125 Z M 3.25 -6.203125 C 3.25 -4.796875 3.570312 -3.664062 4.21875 -2.8125 C 4.875 -1.957031 5.75 -1.53125 6.84375 -1.53125 C 7.945312 -1.53125 8.820312 -1.960938 9.46875 -2.828125 C 10.113281 -3.691406 10.4375 -4.898438 10.4375 -6.453125 C 10.4375 -7.847656 10.109375 -8.976562 9.453125 -9.84375 C 8.796875 -10.707031 7.921875 -11.140625 6.828125 -11.140625 C 5.753906 -11.140625 4.890625 -10.710938 4.234375 -9.859375 C 3.578125 -9.003906 3.25 -7.785156 3.25 -6.203125 Z M 3.25 -6.203125 "/></g></g><g transform="translate(193.849812, 324.769194)"><g><path d="M 9.46875 -1.25 C 8.625 -0.257812 7.382812 0.234375 5.75 0.234375 C 4.40625 0.234375 3.378906 -0.15625 2.671875 -0.9375 C 1.960938 -1.726562 1.601562 -2.894531 1.59375 -4.4375 L 1.59375 -12.6875 L 3.765625 -12.6875 L 3.765625 -4.484375 C 3.765625 -2.566406 4.546875 -1.609375 6.109375 -1.609375 C 7.765625 -1.609375 8.863281 -2.222656 9.40625 -3.453125 L 9.40625 -12.6875 L 11.578125 -12.6875 L 11.578125 0 L 9.515625 0 Z M 9.46875 -1.25 "/></g></g><g transform="translate(207.08028, 324.769194)"><g><path d="M 3.6875 -12.6875 L 3.765625 -11.09375 C 4.734375 -12.3125 6 -12.921875 7.5625 -12.921875 C 10.238281 -12.921875 11.585938 -11.40625 11.609375 -8.375 L 11.609375 0 L 9.453125 0 L 9.453125 -8.390625 C 9.441406 -9.304688 9.226562 -9.984375 8.8125 -10.421875 C 8.40625 -10.859375 7.769531 -11.078125 6.90625 -11.078125 C 6.195312 -11.078125 5.578125 -10.890625 5.046875 -10.515625 C 4.515625 -10.140625 4.101562 -9.644531 3.8125 -9.03125 L 3.8125 0 L 1.640625 0 L 1.640625 -12.6875 Z M 3.6875 -12.6875 "/></g></g><g transform="translate(220.322466, 324.769194)"><g><path d="M 1.109375 -6.453125 C 1.109375 -8.390625 1.566406 -9.953125 2.484375 -11.140625 C 3.410156 -12.328125 4.625 -12.921875 6.125 -12.921875 C 7.601562 -12.921875 8.773438 -12.410156 9.640625 -11.390625 L 9.640625 -18 L 11.8125 -18 L 11.8125 0 L 9.828125 0 L 9.71875 -1.359375 C 8.851562 -0.296875 7.644531 0.234375 6.09375 0.234375 C 4.625 0.234375 3.425781 -0.363281 2.5 -1.5625 C 1.570312 -2.769531 1.109375 -4.34375 1.109375 -6.28125 Z M 3.28125 -6.203125 C 3.28125 -4.765625 3.578125 -3.640625 4.171875 -2.828125 C 4.765625 -2.015625 5.585938 -1.609375 6.640625 -1.609375 C 8.015625 -1.609375 9.015625 -2.222656 9.640625 -3.453125 L 9.640625 -9.28125 C 8.992188 -10.476562 8 -11.078125 6.65625 -11.078125 C 5.59375 -11.078125 4.765625 -10.664062 4.171875 -9.84375 C 3.578125 -9.019531 3.28125 -7.804688 3.28125 -6.203125 Z M 3.28125 -6.203125 "/></g></g><g transform="translate(233.857621, 324.769194)"><g><path d="M 9.46875 0 C 9.34375 -0.25 9.242188 -0.695312 9.171875 -1.34375 C 8.160156 -0.289062 6.957031 0.234375 5.5625 0.234375 C 4.3125 0.234375 3.285156 -0.117188 2.484375 -0.828125 C 1.679688 -1.535156 1.28125 -2.429688 1.28125 -3.515625 C 1.28125 -4.835938 1.78125 -5.863281 2.78125 -6.59375 C 3.789062 -7.320312 5.203125 -7.6875 7.015625 -7.6875 L 9.125 -7.6875 L 9.125 -8.6875 C 9.125 -9.445312 8.894531 -10.050781 8.4375 -10.5 C 7.988281 -10.945312 7.328125 -11.171875 6.453125 -11.171875 C 5.671875 -11.171875 5.019531 -10.972656 4.5 -10.578125 C 3.976562 -10.191406 3.71875 -9.722656 3.71875 -9.171875 L 1.53125 -9.171875 C 1.53125 -9.796875 1.753906 -10.40625 2.203125 -11 C 2.660156 -11.59375 3.269531 -12.0625 4.03125 -12.40625 C 4.800781 -12.75 5.648438 -12.921875 6.578125 -12.921875 C 8.035156 -12.921875 9.175781 -12.550781 10 -11.8125 C 10.832031 -11.082031 11.265625 -10.078125 11.296875 -8.796875 L 11.296875 -2.96875 C 11.296875 -1.800781 11.445312 -0.875 11.75 -0.1875 L 11.75 0 Z M 5.875 -1.65625 C 6.550781 -1.65625 7.191406 -1.828125 7.796875 -2.171875 C 8.410156 -2.523438 8.851562 -2.984375 9.125 -3.546875 L 9.125 -6.15625 L 7.4375 -6.15625 C 4.78125 -6.15625 3.453125 -5.378906 3.453125 -3.828125 C 3.453125 -3.140625 3.675781 -2.601562 4.125 -2.21875 C 4.582031 -1.84375 5.164062 -1.65625 5.875 -1.65625 Z M 5.875 -1.65625 "/></g></g><g transform="translate(246.912308, 324.769194)"><g><path d="M 4.578125 -15.75 L 4.578125 -12.6875 L 6.953125 -12.6875 L 6.953125 -11 L 4.578125 -11 L 4.578125 -3.140625 C 4.578125 -2.628906 4.679688 -2.25 4.890625 -2 C 5.109375 -1.75 5.472656 -1.625 5.984375 -1.625 C 6.234375 -1.625 6.578125 -1.671875 7.015625 -1.765625 L 7.015625 0 C 6.441406 0.15625 5.882812 0.234375 5.34375 0.234375 C 4.375 0.234375 3.644531 -0.0546875 3.15625 -0.640625 C 2.664062 -1.234375 2.421875 -2.066406 2.421875 -3.140625 L 2.421875 -11 L 0.109375 -11 L 0.109375 -12.6875 L 2.421875 -12.6875 L 2.421875 -15.75 Z M 4.578125 -15.75 "/></g></g><g transform="translate(254.752151, 324.769194)"><g><path d="M 4 0 L 1.828125 0 L 1.828125 -12.6875 L 4 -12.6875 Z M 1.65625 -16.046875 C 1.65625 -16.398438 1.757812 -16.695312 1.96875 -16.9375 C 2.1875 -17.175781 2.503906 -17.296875 2.921875 -17.296875 C 3.347656 -17.296875 3.671875 -17.175781 3.890625 -16.9375 C 4.109375 -16.695312 4.21875 -16.398438 4.21875 -16.046875 C 4.21875 -15.691406 4.109375 -15.394531 3.890625 -15.15625 C 3.671875 -14.925781 3.347656 -14.8125 2.921875 -14.8125 C 2.503906 -14.8125 2.1875 -14.925781 1.96875 -15.15625 C 1.757812 -15.394531 1.65625 -15.691406 1.65625 -16.046875 Z M 1.65625 -16.046875 "/></g></g><g transform="translate(260.576369, 324.769194)"><g><path d="M 1.0625 -6.453125 C 1.0625 -7.703125 1.304688 -8.820312 1.796875 -9.8125 C 2.285156 -10.800781 2.960938 -11.566406 3.828125 -12.109375 C 4.703125 -12.648438 5.703125 -12.921875 6.828125 -12.921875 C 8.546875 -12.921875 9.9375 -12.320312 11 -11.125 C 12.070312 -9.925781 12.609375 -8.335938 12.609375 -6.359375 L 12.609375 -6.203125 C 12.609375 -4.960938 12.367188 -3.851562 11.890625 -2.875 C 11.421875 -1.894531 10.75 -1.128906 9.875 -0.578125 C 9 -0.0351562 7.988281 0.234375 6.84375 0.234375 C 5.125 0.234375 3.726562 -0.363281 2.65625 -1.5625 C 1.59375 -2.757812 1.0625 -4.34375 1.0625 -6.3125 Z M 3.25 -6.203125 C 3.25 -4.796875 3.570312 -3.664062 4.21875 -2.8125 C 4.875 -1.957031 5.75 -1.53125 6.84375 -1.53125 C 7.945312 -1.53125 8.820312 -1.960938 9.46875 -2.828125 C 10.113281 -3.691406 10.4375 -4.898438 10.4375 -6.453125 C 10.4375 -7.847656 10.109375 -8.976562 9.453125 -9.84375 C 8.796875 -10.707031 7.921875 -11.140625 6.828125 -11.140625 C 5.753906 -11.140625 4.890625 -10.710938 4.234375 -9.859375 C 3.578125 -9.003906 3.25 -7.785156 3.25 -6.203125 Z M 3.25 -6.203125 "/></g></g><g transform="translate(274.263868, 324.769194)"><g><path d="M 3.6875 -12.6875 L 3.765625 -11.09375 C 4.734375 -12.3125 6 -12.921875 7.5625 -12.921875 C 10.238281 -12.921875 11.585938 -11.40625 11.609375 -8.375 L 11.609375 0 L 9.453125 0 L 9.453125 -8.390625 C 9.441406 -9.304688 9.226562 -9.984375 8.8125 -10.421875 C 8.40625 -10.859375 7.769531 -11.078125 6.90625 -11.078125 C 6.195312 -11.078125 5.578125 -10.890625 5.046875 -10.515625 C 4.515625 -10.140625 4.101562 -9.644531 3.8125 -9.03125 L 3.8125 0 L 1.640625 0 L 1.640625 -12.6875 Z M 3.6875 -12.6875 "/></g></g></g><path stroke-linecap="butt" transform="matrix(0.75, 0, 0, 0.75, 292.25729, 315.019195)" fill="none" stroke-linejoin="miter" d="M 0.000696418 2.000449 L 49.349659 2.000449 " stroke="#000000" stroke-width="4" stroke-opacity="1" stroke-miterlimit="4"/><path stroke-linecap="butt" transform="matrix(0.75, 0, 0, 0.75, 129.289539, 316.519195)" fill="none" stroke-linejoin="miter" d="M -0.000635173 2.000449 L 44.160827 2.000449 " stroke="#000000" stroke-width="4" stroke-opacity="1" stroke-miterlimit="4"/></svg>